<?xml version="1.0" encoding="utf-8"?>
<!-- Generator: Adobe Illustrator 27.5.0, SVG Export Plug-In . SVG Version: 6.00 Build 0)  -->
<svg version="1.1" id="Layer_1" xmlns="http://www.w3.org/2000/svg" xmlns:xlink="http://www.w3.org/1999/xlink" x="0px" y="0px"
	 viewBox="0 0 500 100" style="enable-background:new 0 0 500 100;" xml:space="preserve">
<style type="text/css">
	.st0{enable-background:new    ;}
	.st1{fill:#8B1874;}
</style>
<g class="st0">
	<g>
		<path class="st1" d="M60,44.4l0.3,0.3v0.4l-0.4,0.4l-0.3-0.1l-1.2,0.2l0.2,0.3l0.7,0.3l0.4-0.2l0.6,0.5L60.1,47h-0.4l0.1-0.6
			l-0.4,0.3l0.1,0.7l0.9,2L60,49.8l-0.6,0.4v2.5L58,53.2l-0.4,0.5l0.1,0.9l-0.2,0.7L56,55.9l0.3,0.3l0.7,0.2l0.3,0.3l-0.1,0.5
			l-1.1,0.3l-0.3,0.3l0.5,1l0.4-0.1l0.3,0.2l0.4,0.6l-0.1,0.4l-0.9,1l0.1,0.4l0.3,0.2l0.4,1.5l-0.9,0.5v0.4l0.5,0.4L55,65.3l0.1,0.5
			l0.5,0.4l0.3-0.2l0.2-0.6l0.3-0.1l0.2,0.2L56.4,66l-0.3,0.3l0.3,1.9l0.3,0.3l-0.8,0.7l0.2,0.4L56,70.3l-0.4,0.5h-1.3l0.1,0.9h0.7
			l0.6,1.3l-0.4,0.4l-0.5-0.6l-0.4,0.2l-0.8,1.2l0.2,2l-0.5,1.2l0.1,0.4l0.4,0.7v0.4L53,80.3l0.3,1.1l0.4,0.4l-0.2,0.4L53,82.3
			l-0.3,0.4l-0.2,2.1l-0.2,0.4l0.2,0.8l-0.4,0.4l-1,0.2v0.4l-0.3,0.6l-1.4-0.4l-0.6,0.7l-0.3,0.1L48.2,88L48,87.6l0.2-0.4L47.4,87
			l-0.8-0.6L46.5,86L46,85.7l-0.4-0.5l-0.5-1.9l0.2-0.4L45,81.8L44.5,81l0.1-0.6l0.5-1.3l-0.7-0.7l-0.3-0.6l0.3-0.6l-0.1-0.6
			l1.3-0.5l0.4-0.5l-1.4,0.2l-0.3-0.2l-0.1-0.5l0.9-0.4l0.3-1.4h-0.7l-0.5-0.4l0.2-1.2l-0.1-0.7l0.4-0.6l-0.7-0.9L44,69l0.7-0.8
			v-0.4l0.5-0.8l-1.1-0.4v-0.4l0.7-0.7l-0.4-0.5l0.1-0.4l-0.3-0.4l-0.1-0.7l0.2-0.4l0.6-0.5l-0.4-0.7l0.7-0.7l-0.3-0.2h-0.5l0.3-1
			l0.4-0.4l0.1-1.4l-0.2-0.4l0.4-0.7l-0.3-1.2l0.7-1.8l0.6-0.3l0.2-0.4l-1.2,0.4l-0.2-0.3l0.3-0.6l0.5-0.4l-0.1-0.4l-0.4-0.4
			l0.5-2.1v-0.7l0.4-0.8l-0.4-0.3l0.4-0.7l-0.3-0.4l0.1-1l1.2-1.8l-0.2-0.3l-0.6-0.2v-0.7l0.8-0.9l-0.5-1.3l0.2-0.4l0.5-0.4l-0.4-2
			l0.3-1v-1.2l0.3-0.3l0.4-1.4L48,32.3l0.7-1.5l-0.1-0.7l0.5-2.8l0.3-0.5l0.1-1.2l0.4-1.3v-2.8l0.9-1.2l-0.3-0.4L50,19.9l-0.5,0.4
			L49.3,21l-0.9,0.5l-0.4,0.5l0.3,0.7h-0.4l-1.1,1l-0.4,0.1l-0.1,1.1l-1.1,0.4l0.4,1.8l-1,0.4l-0.1,0.5l0.2,0.8l-0.4,1.2L43,30.7
			l-0.7,1.7L42,32.6l0.1,0.4l-0.2,0.4l0.7,0.7l-0.2,0.4l-1.3,1v1.2l-0.7,0.2l0.2,0.3l0.6,0.2L40.9,38l0.6,0.9l-0.9,2l-0.7,0.4
			l0.1,0.3L39.7,42l-0.5,0.4l0.4,0.6l0.7,0.2l-0.3,0.3l-0.7,0.2l-0.5-0.1l-0.2,0.6l0.4,1v0.4l-1.1-0.1l-0.2,0.3l0.5,0.8v0.4l0.4,0.6
			l-0.2,1.2l-0.3,0.2v0.4L38,49.7l-0.1,0.7l0.3,0.4l-0.4,0.5L37.6,52l0.1,0.4L37,53.6L36.5,54l-0.6,0.3l-0.8-0.1l-0.3,0.3l0.4,0.4
			l0.1,0.3l-0.7,0.7l-1,0.4l-0.4,0.4l-0.9-0.5l-0.7,0.7l-2.1,0.5l-0.7-0.1l-0.5-0.3l-0.4,0.1v-0.5l-0.6-0.4L26.9,55l0.2-0.4h-0.6
			l-0.3-0.3v-1.2l-0.6-0.4l-0.1-1.2l0.3-0.7L25.3,50l0.3-1.8l0.4-0.5l-0.6-0.5l0.2-2.7l0.3-1.2l-0.3-0.5v-1.4l0.2-0.7L25.6,40
			l0.2-1.5L25.5,37l0.1-0.3l0.6-0.5l-0.4-0.7l0.2-0.5l-0.4-0.6v-1.2l-0.4,0.1l-0.5,0.4v0.6l-0.8,0.3L22,36.7v1l-0.5,0.9l-0.1,0.7
			l0.4,0.6v0.4l-0.4,0.3l-0.4-0.1l-0.2,1.1L20.5,42h-0.6l-0.2,0.4l0.4,0.7l-0.1,0.4l0.5,0.7l-0.2,0.4l-0.7,0.6l0.1,0.6l-0.9,2
			l0.6,0.6v0.6l-0.9,0.4l1.2,1.1L19,51.8l-0.6,0.5v0.4l-0.6,0.8l-1,0.2L16.7,54l0.5,0.8v0.6l0.4,0.2l0.7-0.7l0.4-0.1v1.5L18,56.4
			l-0.5,0.4l0.7,0.5l0.2,1.7l-1.2,0.6l-0.4,0.5l0.2,0.3l0.8,0.3v0.6l1,0.2l-0.3,0.6l-2.5,0.4l-0.6,0.3l0.4,0.7v0.8l0.3,0.5l-0.6,0.4
			l-0.3,1.5l0.8-0.2l0.4-0.6l0.6-0.4l0.2,0.4l-0.4,1.3l-0.4,0.5l0.5,0.9v0.4l-0.3,0.4l-0.8-0.1l-0.3-0.3l0.4-0.4l-0.6-0.4l-0.6,0.4
			l0.2,0.7l-1.1,0.9l0.1,1.4l1,0.6v0.4L14.8,73l-0.9,0.2l0.3,0.6v0.7l-0.7,0.8l-0.6,0.4l-0.4,0.8l0.1,1.4l-1.2,0.8l0.2,0.4l-0.2,0.5
			l-0.6,0.3l-0.6-0.3l-0.3,0.1l-0.2,1.1l-0.3,0.1l-0.3-0.7H8.7l-1-0.7l-0.4,0.1l-0.5-0.3L7,78.7l-0.9-1.5L5.9,76l-0.3-0.3l0.1-0.4
			l-0.4-1.1l0.3-0.7L5,73l0.1-0.4l0.3-0.2h0.5v-0.4l-0.5-0.4v-0.4l0.4-0.6L5.4,70l0.1-0.4l0.2,0.3l-0.4-1.8l0.4-0.5v-0.7L6,66.5
			l-0.6-0.7l0.4-0.7l-0.2-0.5l0.4-0.4l0.2-0.4l-0.6-0.9L6.4,62l-0.1-0.4l0.4-1l-0.6-0.4l0.2-0.4l0.8-0.7l-0.7-0.7L7,57.3l-0.2-0.5
			l0.1-0.5l-0.4-0.8l0.1-0.3l0.5-0.4L7,54.1L7,53.4l-0.3-0.6l0.1-0.7l0.4-0.5L7,51l0.2-0.3l0.6-0.4H7.1l-0.4-0.5l0.4-1.1l-0.4-0.7
			L7,47.6L6.8,47l0.1-0.6l0.4-0.6l-0.1-0.7l0.3-0.6L7,43.6v-1.2l0.3-1.1L7,40.5l0.4-1.7L7,38l0.4-2l-0.2-1.4l0.2-0.2h0.4l-0.1-0.9
			L7.9,33l-0.5-1l0.2-0.5v-1.4l-0.2-0.6l0.4-0.6l-0.2-0.4l0.1-1.5l-0.2-0.7l0.3-0.6l-0.3-0.8l0.4-1l-0.4-0.6l0.2-0.3l-0.2-1.2
			l0.4-0.5l0.7-0.4l0.9-0.8l1.5-0.6l0.5,0.1l1.2,0.8l0.4,0.5l1.3,0.4h0.6l0.1,0.7l0.5,1.2l-0.2,0.6l1.2,1.2l0.9,0.4l0.4,0.5
			l-0.4,0.9l0.3,0.3l0.4,0.1L18.3,28l0.2,0.2h0.8l0.3,0.3l-0.4,1.2l0.1,0.3l0.4-0.1l0.4,0.2v0.4l-0.5,0.4l0.5,0.7l-0.2,0.3l-0.2,1.3
			L19,33.5l-0.2,0.3l0.3,0.4h0.8l0.7-1l0.4-0.1l0.6-0.7l0.6-0.3l0.6-0.9l1-1l2.2-1.6h0.4l1.3-0.7l0.7-0.1l0.6,0.2l1.1,0.8l0.3-0.1
			l0.4-0.5l0.4-0.1L31.1,29l0.3,0.3h0.4l0.9,0.6l0.1,1.1l0.9,1.7l0.1,1.2l-0.4,0.7v1l0.2,0.4l0.6,0.4L34.1,37l-0.3,0.5l1.3,0.4
			L35,38.2l-0.9,0.5l0.3,0.4l0.7,0.1l0.6-0.3l0.3,0.4l-0.2,1.5l-0.9,0.4l-0.5,0.4l0.4,0.5l0.8-0.5l0.3,0.3l0.1,0.7l-0.3,0.6l0.2,0.4
			l0.6,0.4l0.2-0.4l-0.1-0.4l0.4-0.6l0.6-0.4v-1.8l0.3-0.3l0.4-1.5l0.4-0.6l0.3-0.2v-0.5l1.3-2L40,35.1l-0.4-0.2l-0.2-0.6l0.7-0.6
			l-0.1-0.4l0.3-0.5l0.6-0.4l0.4-1.4l-0.1-0.8l0.8-0.5l-0.5-0.7l1.1-1.2v-0.7l0.4-0.4l0.6,0.3l0.7-0.1l-0.2-0.4v-2l0.3-0.2l0.5-1.2
			l0.4,0.1l0.6-0.2l0.3-0.3l-0.7-0.3l-0.1-0.4l0.3-0.6l1-0.1l0.3-0.2l-0.2-1.2l0.3-0.6h0.7l-0.4-1.5l1.2-0.8l0.3-0.7l0.6-0.3l1-1.2
			l0.4-0.1l0.7-1l0.7-0.2l0.9-1l2.1-0.7l0.6,0.2l0.8-0.1l1.3,0.6l0.8,0.2l0.5,0.4l0.1,0.4l1.4,1.2L60.4,16L60,16.5l1,1l-0.2,0.6
			l-0.4,0.4l0.2,0.4l1-0.6l0.2,0.4v0.8l-0.2,0.3l0.9,0.5v0.7l-1-0.4l-0.3,0.2l0.8,1l-0.4,1l1.2,0.2l0.2,0.3l-0.1,0.4l-0.4,0.4
			l0.2,0.6l-0.2,0.4l-1.3,1l0.6,0.7l0.5-0.4l0.4-0.1l-0.2,0.6l-0.4,0.6v0.9l-0.6,0.8l0.6,0.3l-0.1,0.4l-0.4,0.3l0.4,0.6l0.3,1.9
			L62,32.6l-0.8-0.2l-0.4,0.4v0.4h0.7l0.2,0.3l-0.4,1l0.4,1.3l-0.1,0.7l-0.9,0.3v1.9h0.3l0.5-0.4l0.2,0.4l-0.2,0.6l-0.7,0.6v1
			l-0.4,0.5l0.3,0.7L60,42.3l-1,0.9l1.4,0.2l0.3,0.3L60,44.4z M11,78.9l-0.1-0.4l-0.4-0.1l-0.1,0.4H11z M16.4,71.1l-0.4,0.1l-1-0.4
			v-0.3l0.7-0.1l0.7,0.2V71.1z M15.2,73.5l0.1,0.4H15v-0.4L15.2,73.5z M15.6,58.6l0.4,0.1v-0.9h-0.4l-0.3,0.5L15.6,58.6z M17.3,63.6
			l-0.4,0.6l-0.4-0.2l-0.1-0.4l0.2-0.4l0.4-0.2l0.4,0.1L17.3,63.6z M18.8,35.7L18.8,35.7l0.4-0.2v-0.4L18.8,35.7z M29.7,51l0.7,0.2
			l0.2-0.6l-0.4-0.2l-0.6,0.4L29.7,51z M32.7,46l-0.3-0.4L32.3,46L32.7,46z M33.6,47.6l0.1-0.4l-0.4,0.1l-0.1,0.4L33.6,47.6z
			 M34.2,46.1l0.6-0.1l0.6,0.3l-0.3-1.5l-0.4-0.2l-0.6,0.3l-0.4,0.6l-0.1,0.8L34.2,46.1z M34.5,47.8l0.3-0.1l-0.1-0.4h-0.4l-0.1,0.4
			L34.5,47.8z M34.9,40.4v-0.5l-0.4-0.2v0.6l0.2,0.3L34.9,40.4z M36.5,52.7h-0.4l0.1,0.4l0.2,0.1L36.5,52.7z M39.5,45.8v0.7h-0.4
			v-0.8L39.5,45.8z M41.9,37.2l0.1,0.4l-0.3,0.1v-0.4H41.9z M45.4,62.9l0.3,0.2l0.4-0.6l-0.8,0.2L45.4,62.9z M46,72.9l0.4-0.2
			l0.1-0.4h-0.4l-0.4,0.5H46z M46.4,83.3l0.1-0.4H46l0.2,0.4H46.4z M46.5,25.7l-0.1-0.3l0.4,0.2L46.5,25.7z M49.4,69.4l-0.4-0.2
			l-0.4,0.5l0.5,1.1L48.6,72v0.4l-1,0.4l-0.7,0.1l-0.2,0.3l0.7,0.2l1.6-0.4l0.1-0.3L49,72l0.2-0.3l0.7-0.3l0.2-0.4l-0.3-0.6l0.4-0.4
			l0.1-0.4h-0.5L49.4,69.4z M47,74.6l0.4-0.2l0.2-0.4l-0.7,0.1l-0.1,0.4L47,74.6z M48.3,76.8l-0.4-1l-0.7-0.1l0.5,0.7l-0.2,0.2h-0.4
			l-0.2,0.3l0.3,0.2l0.5-0.1l0.7,0.4l0.1-0.4L48.3,76.8z M47.3,84.7l0.4-0.1l0.2-0.3l-0.3-0.2l-0.4,0.1L47,84.6L47.3,84.7z
			 M47.7,58.2l0.3-0.5l-0.6,0.2v0.4H47.7z M47.7,67l1.8,0.1l-0.1-0.4l-0.5-0.4l-0.7-0.1l-0.5,0.3l-0.2,0.4L47.7,67z M48,70.2
			l0.2-0.3v-0.4l-0.4,0.1l-0.2,0.6H48z M48.3,78.7l0.2-0.6h-0.3l-0.4,0.6H48.3z M49.1,73.8L48.5,74l-0.3,0.4l0.4,0.1l0.6-0.3v-0.4
			l0.5-0.9l-0.6,0.4L49.1,73.8z M48.4,80.1l0.4,0.1v-0.4l-0.3-0.2l-0.3,0.1L48.4,80.1z M49.2,75.5v-0.4l-0.4,0.1l0.1,0.4H49.2z
			 M49.4,81.8l0.4,0.4l-0.6,0.4v0.4l1.1-0.3l-0.1-0.4l0.4-1.1L50.2,81l-0.7-0.1l-0.3,0.6L49.4,81.8z M49.5,75.9v0.6l-0.2,0.4
			l0.6,0.2l0.4-0.1l0.1-0.4l-0.6-0.4l0.5-0.5L50,75.5l-0.6,0.1L49.5,75.9z M49.8,78.7l0.4-0.1l0.2-0.4L50,78.1l-0.5,0.4L49.8,78.7z
			 M50.3,65l-0.4-0.3l-0.1,0.4l0.4,0.2L50.3,65z M49.8,67.6V68h0.4v-0.4H49.8z M50.4,60.3l-0.2,0.3l0.1,0.4h0.4l0.3-0.3v-0.4
			l-0.3-0.2L50.4,60.3z M52.4,64.7L51,65.2l-0.6,0.4l0.2,0.3l0.4,0.1l0.6-0.4l0.4,0.1l0.7-0.3l0.1-0.5L52.4,64.7z M51,52.3l0.4-0.1
			l0.1-0.4l-0.3-0.2l-0.4,0.5L51,52.3z M51.3,72.9l0.1-0.4l-0.3-0.1l-0.3,0.2v0.3l0.3,0.2L51.3,72.9z M51.3,48l0.2-0.3h-0.4L51,48
			H51.3z M51.7,43.6l0.7-0.1l0.1-0.4l-0.4-0.1l-0.6,0.4L51.7,43.6z M51.6,68l0.3,0.1l0.1-0.4h-0.4L51.6,68z M52,66.7l0.2-0.4
			l-0.4-0.1l-0.2,0.6L52,66.7z M52.3,40.5l0.1-0.3H52v0.3H52.3z M52.4,44.7l0.1-0.3H52v0.4L52.4,44.7z M52.5,59.4l-0.3-0.1l0.2,0.4
			L52.5,59.4z M53,41.7v-0.2l-0.4-0.1l-0.1,0.2L53,41.7z M53.2,62.6l0.4-0.4L53.3,62l-0.4,0.2l-0.2,0.3l0.3,0.3L53.2,62.6z M53,56.4
			l0.3,0.7l-0.4,0.6l0.3,0.3l0.4-0.1l0.2-1l0.7-0.6v-0.6L54.1,55l-0.5,0.7L53,56.4z M53,39.2h0.4l-0.1-0.4L53,38.9V39.2z M53.7,59.6
			l0.4-0.5l-0.4-0.2l-0.3,0.1l-0.2-0.4v1.1L53.7,59.6z M54,53.7l0.5-0.5v-0.4L53.9,53l-0.3,0.8L54,53.7z M54.3,44.5l-0.4-0.1v0.3
			L54.3,44.5z M54.4,47.2h-0.2l0.2,0.4V47.2z M54.8,74.9l-0.4-0.1v-0.4l0.4-0.1l0.3,0.2L54.8,74.9z M54.9,49.2l1.2-0.2l0.4,0.2
			l0.3-0.2l-0.2-0.3l-0.6-0.3h-0.7l-0.4,0.2l-0.3,0.7L54.9,49.2z M55.1,70.3l0.2-1.1h-0.4l-0.4,0.5v0.4l0.4,0.4L55.1,70.3z M55,47.6
			l0.2,0.1l0.4-0.4H55V47.6z M55.6,50.9l-0.1,0.7l0.4,0.4l0.4-0.1l-0.2-0.7L55.9,51l0.3-0.2l0.8,0.1l0.4-0.2l-0.2-0.3l-0.7-0.2
			l-1,0.3L55.6,50.9z M56.4,29.7l-0.5,0.4l-0.1,0.4l0.4-0.1l0.7-0.7l0.3-0.7L56.8,29l-0.1,0.5L56.4,29.7z M56.3,41.5l0.5-0.4l-1,0.3
			v0.3L56.3,41.5z M56.3,44.8l0.4-0.1l0.2-0.3V44l-0.4-0.1l-0.5,0.5v0.4H56.3z M56.5,45.9l0.2-0.4l-0.4,0.1L56.3,46L56.5,45.9z
			 M56.8,54.8l-0.4-0.2l0.1,0.4l0.2,0.1L56.8,54.8z M57.1,38.6l0.1-0.6L56.8,38l-0.1,0.3L57.1,38.6z M57.8,58.8h-0.4l-0.2-0.2v-0.4
			h0.6v0.4L57.8,58.8z M57.4,49.1l0.4-0.1l0.2-0.3l-0.3-0.4l-0.4,0.4L57.4,49.1z M58.3,43.9L58,44.3l0.2,0.3l0.5-0.2l1,0.3l0.3-0.2
			l-0.3-0.6l-0.4-0.1l-0.6,0.2l-0.2,0.3L58.3,43.9z M58.9,35.8l0.4-0.6h-0.6l-0.2,0.4L58.9,35.8z M59,33.1L58.8,33l-0.1,0.4l0.3,0.1
			L59,33.1z M59.2,27.3l0.7-0.1l-0.6-0.4h-0.4l-0.1,0.4H59.2z M58.9,37.7l0.1,0.6h0.6L59.6,37l-0.4,0.1l-0.3,0.3L58.9,37.7z
			 M59.5,41v-0.4l-0.2-0.2l-0.2,0.4L59.5,41z M59.6,25.8l0.6-0.1v-0.4l-0.4-0.1l-0.5,0.4L59.6,25.8z M60.4,21.4l0.1-0.3L60,21.3
			L60.4,21.4z"/>
		<path class="st1" d="M113,45.2l0.1,0.5l-0.5,1.3l-0.5-0.1l-0.4,0.2l-0.4,0.4V48l-0.6,0.2l-1.5-0.1l-1,0.6l-0.4-0.4l-0.2,0.4
			l0.5,0.4l-0.4,0.5l-1.3-0.2l-0.3,0.5l-1.2,0.5h-1l-0.5,0.4l-0.5-0.1l-0.2-0.2l-0.3,0.3l-0.6-0.1l-0.4,0.6l-0.9,0.1l-0.6-0.3
			l-0.7,0.1l-0.8,0.5l-0.8-0.1L97.3,52l-0.7-0.2l-0.4,0.3l-0.2,1.4l-0.4,1.2l0.4,1.8l-0.4,1.2l0.5,1.3l-0.6,1v1l-0.4,0.3l-0.4-0.2
			l-0.3,0.4l0.2,0.4v1.1L94.1,64v1.2L93.3,66l-0.4,1.2l0.1,0.4l-1,1L91.4,69L91,70l-1.2,0.9l-0.5-0.4L88.9,71l-0.4,1.5l-0.3,0.3
			L87.5,73l-0.4-0.1v0.6L85.6,74l-0.2,1.2H85l-0.4-0.4l-0.6,0.4l-0.9,1l-0.9,0.1l-1,0.7L80.8,76l-0.4,0.1l-0.2,0.3l0.4,1.2l-0.3,0.3
			l-0.7-1L79.1,77l-0.5,1L78,77.4l-0.9,0.4l-0.6-0.4l-0.6-0.1l-0.4,0.2l-0.4-0.3l-1,0.9h-0.4l-0.3-0.5v-0.8l-0.6,0.5l-0.4,0.1
			L72,77.2l-0.6,0.4L71,77.5l-0.9-0.9l-1.1-0.4l-0.4-0.6l-0.8-0.2l-0.2-0.2l-0.1-0.7l-1-0.4l-0.3-2l-0.8,0.2L65.5,72l0.2-0.4
			l-0.8-1.2l0.1-0.8l-0.6-0.6l-0.2-1.2l-0.5-1.2l0.2-0.6l-0.3-1.6l0.2-1.4v-2l0.4-0.7l0.6-0.4l-0.1-2l0.3-0.5l0.1-0.8l0.8-0.2
			l0.6-0.8l-0.2-0.7l0.8-1.1l0.3-0.8l0.5-0.4l0.2-0.6l-0.4-0.6l0.2-1h0.6l0.4,0.4l0.5-0.3L69,49.7v-0.3l0.6-0.9l2.2-1.7l0.4-0.5
			l0.6-0.3l0.9-1.2h0.9l0.2-0.8l0.3-0.3h0.8l1.1-0.9l0.7-0.3l0.3-0.6l0.8-0.1l0.4,0.2l0.3-0.2l0.2-0.7l0.3-0.4l0.5,0.2l0.4-0.1
			l0.4-0.4l0.4,0.8l0.3-0.1l0.3-0.6l0.3-0.2l0.4,0.1l0.3,0.4l0.3-0.2l0.3-1l0.2-0.2l0.3,0.1l0.4,0.5l0.8-0.2l0.7,0.7l0.7,1.2
			l0.4,1.5l0.2,0.2l2.1,0.2l1.1,0.6H91l1.5,0.9l1.1,0.9l0.8,1.2l0.2,1.6l0.7-0.2l0.4,0.6l0.5,0.4l0.6-0.5l0.7,0.4l0.5-0.6l0.6-0.4
			l1.7,0.2l0.7-0.4l0.3,0.2l0.5-0.2l0.1-0.6l0.3-0.2l0.6,0.4l0.7-0.3h0.4l0.9-0.5h0.6l0.4-0.5l0.3-0.1l0.4,0.2l0.4,0.7l0.3-1.2h2
			l1.1-1.2l0.7-0.3l1.2,0.5l0.6-0.4L113,45.2z M67.8,64.5l0.4-0.2l0.2-0.4l-0.3-0.2l-0.5,0.4l-0.1,0.4L67.8,64.5z M68,66.7l-0.1-0.4
			L67.6,66l-0.1,0.6l0.3,0.2L68,66.7z M69.8,72.3l0.6,0.3v-0.4l-0.3-0.4l-0.4,0.2V72.3z M93.3,59.8l0.3-0.2l0.2-0.8l-0.6-0.6
			l0.4-1.2l-0.5-0.6l0.5-2l-0.4-1.5l0.2-0.7l-0.1-0.4l-1.2,0.5l-0.4-0.1l-0.8-0.6v-0.5h-0.4l-0.8,1.2l-0.5,0.1l-0.2-0.3L89,51.3
			h-0.4l-0.1,0.4l0.4,0.6l-0.5,0.4l-0.3-0.1L87.9,51h-0.5v0.7l-0.9,0.4l-0.5-0.6l-0.2,0.4l0.4,0.5l-0.3,0.3l-0.5-0.3l-0.5-0.5
			l-0.7-0.1L83.8,51l-0.9-0.6l-0.1-0.3l0.3-0.7l-1.2-0.7l-0.4,1.4L80,51.5v0.8l-0.5,0.4l-0.8-0.1L78,53.3l0.4,0.8l-0.8,0.4L77,54
			l-0.6,0.6L76,54.5l-0.4,1.2l0.2,1.4l-0.2,0.3L74.2,58v0.4l0.3,0.3h0.6l0.4,0.4v0.4l-0.3,0.4l-0.5-0.2l-0.6,0.5l-0.3,0.6l0.4,0.8
			l-2.2,1l-0.3,0.7l0.1,0.4h-0.7l-0.7-0.5l-0.5,1.7l0.2,0.3l0.8-0.5l0.6,0.2l0.3,0.6L71.4,66L71,65.7l-0.6,0.1L70,66.3l0.1,0.9
			l1.2-0.1l0.3,0.4v0.7L71,68.4l-0.4-0.1l-0.3,0.2L70,69.1l0.2,0.5l0.4,0.2l0.4-0.1l0.5,0.5l0.4,0.7l0.4-0.1l0.2-0.4l-0.6-0.9
			l0.2-0.3l0.2-1.3l0.3-0.1l0.5,1.3L72.9,70l-0.3,0.4l0.2,0.3l0.1,0.7l-0.2,1.4l-1-1.1h-0.4l0.2,0.6l-0.1,0.7l0.4,0.3h0.3l0.5-0.4
			H73l0.3,0.4l-0.4,0.8l0.3,0.3v0.4h0.4l0.5-0.4l1,0.4l0.3-1.1l0.3-0.1l0.2,0.2v0.8l0.2,0.4l0.4,0.2l0.5-0.7l1,0.4l0.5-0.4l0.5,0.5
			l1.2-0.6h0.7l0.7-0.6l0.7,0.2l1.4-0.5l2.4-1.6v-0.4l1.1-1l2-1.2l0.2-0.7l0.4-0.5l0.1-0.4l0.3-0.3l0.8-0.1l0.4-0.4l0.1-0.8l0.8-0.7
			l0.3-0.6l-0.2-0.4l0.5-2l-0.1-0.7l0.5-0.7l0.1-0.7L93.3,59.8z M70.6,75.2h-0.4l0.4,0.3L70.6,75.2z M70.6,61.4l-0.2,0.2l0.2,0.4
			l0.3-0.5L70.6,61.4z M71.5,60.6l0.3,0.3l0.3-0.1L72,60.4h-0.4L71.5,60.6z M72,66h0.6l0.1,0.6l-0.5-0.1l-0.3-0.3L72,66z M72.2,64.1
			l0.1-0.3h0.3l0.1,0.4L72.2,64.1z M72.7,78v0.4l-0.2,0.1l-0.4-0.2l0.3-0.4L72.7,78z M72.8,62.8l-0.1,0.4l-0.3-0.4H72.8z M73,60.4
			h0.3l0.2-0.4h-0.4L73,60.4z M73.7,72.9v-0.4H74v0.6L73.7,72.9z M74.1,73.8L74,74.1L73.8,74v-0.4l0.2-0.2L74.1,73.8z M86,45.9
			l0.1,0.4l-0.2,0.3L85.7,48l0.4,1.3h0.8l1.1,0.6l0.4-0.3l1.8,0.5l0.3-0.3l0.6-0.2l0.8,0.4l0.6-0.1l0.2,0.3l-0.3,0.4l0.1,0.4
			l0.5-0.4l0.3-0.8l0.5-0.4l-0.3-0.3L93,49.7l-0.5-0.4l-0.4-1.2l-2-2.3l-2-0.3l-0.7,0.3l-0.4,0.4l-0.6-0.4L86,45.9z M86.7,50.9
			l0.2-0.2l-0.4-0.2l-0.1,0.4H86.7z M91.1,52.4l0.4,0.2l0.1,0.4l-0.6,0.2l-0.3-0.3v-0.4H91.1z M90.9,69l0.2-0.3l-0.4,0.1L90.9,69z
			 M93.6,61.8l0.2-0.6l-0.4-0.1l-0.2,0.4l0.1,0.4H93.6z M107.1,50l0.5,0.3l-0.4,0.2l-0.4-0.2L107.1,50z"/>
		<path class="st1" d="M154.8,53h-0.4l-0.1-0.3l-0.7,0.4l-0.2,0.7l-1.3,0.4l-0.3,0.5l-0.5,0.3l0.2,0.2l1.2,0.2l-0.7,0.6l-1.6,2.8
			l-0.8-0.2l-0.1,0.4l0.2,0.4l-0.3,0.2l-0.7,1.2l-0.2,0.8l-0.8,0.9l-0.3,1l-0.6,0.3l-0.4,0.8l-0.9,0.2l-0.1,0.3l0.3,1.3l-1.1,0.9
			l-0.2,0.7l-1.1,0.7l-0.3,1l-0.5-0.4l-0.4,0.4l0.4,0.8l-0.4,0.2l-0.8,1.2l-1.1,0.4l-0.4,1.4l-0.8,0.1L139,74l0.4,0.6l-1.8,1.7
			l-0.6,0.3l0.1,0.7l-0.6,0.9l-0.4,0.1l-0.4,0.7h-0.4l-0.8,0.6l-0.1,0.9l-0.9,0.4l-1.1,2l-0.5,0.4l-0.8,1.2l-0.4,0.1l-0.4-0.2
			l0.1-0.3l0.5-0.4l-0.3-0.3l-0.9,0.6l-0.9-0.6h-1.2l-0.8-0.4l-0.2-0.6l-1.3-0.4v-0.6l-0.6-1.8l-0.3-0.3l-0.7-0.2V79l-0.8-0.7
			L123,78l0.4-1.2l-0.3-0.3l0.5-0.7l-0.2-0.3l-0.9-0.4l0.4-0.4l1.1,0.2l0.2-0.2l-0.8-0.7l-0.2-0.4l0.2-0.6l-0.4-0.2l-0.1-0.3
			l0.2-0.3h0.5l0.1-0.4l-0.2-1l0.7-0.4l-0.4-0.9l0.2-0.3l-0.4-0.3l-0.2-0.7l0.7-0.7V67l1-1l-0.1-0.4l-0.5-0.9l0.5-0.9v-0.7l0.3-0.2
			l0.2-0.6l-0.5-0.5l0.2-0.6l0.7,0.2l0.5-0.3l-0.8-0.4l-0.1-0.4l0.3-0.4l0.4-0.2l-0.3-0.5l0.6-0.7l-0.3-1.1h0.6l0.3-0.2l-0.5-0.7
			l0.3-0.6l0.4-0.4v-0.3l-0.4-0.4l0.8-0.5v-0.4l-0.6-0.1l0.1-0.5l0.8-0.1l-0.4-0.9l0.2-0.6h0.7l0.2-0.3v-1.2l0.7-0.2l-0.1-0.7
			l-0.4-1.2l0.4-0.5l0.1-0.7l0.6-0.5l-0.6-0.8l0.6-1.2l-0.1-0.7l-0.9-0.6l-2,1.6l-0.3,0.7l-0.4,0.4l-0.4,0.1l-0.4,1.1l-0.4,0.5
			l0.1,0.6l-0.9,0.5l-0.4,0.5l0.1,0.6l-0.2,0.3l-1,0.2l0.2,0.7l-0.4,0.4l-0.6,0.2l0.1,0.4l-0.5,0.7h-0.7l0.4,0.7v0.4l-0.4,0.6v0.8
			l-0.3,0.5l0.2,0.6l-1.2,0.4l0.4,0.7l-0.3,1l-0.5,0.5l-1.1,2.8l-0.4-0.2l-0.4-0.5l-0.4,0.2l-0.2,0.4l0.7,1.2L117,63l-0.7-0.4
			l-0.5,0.4l-0.2,0.6l0.3,0.6l0.4,0.1l-0.2,0.4l-0.5,0.4v0.4l-0.4,1.1l0.1,0.6l-0.4,1.7l-0.5,0.4l-0.2,1.2l-0.7,0.7v0.8l0.3,0.6
			l-1.2,1.2V74l-0.4,0.6l-0.3,1.2l-0.5,0.3l-0.9-0.5h-0.4l-0.6,0.4l-0.7,0.1l-0.3,0.6l-0.4-0.2l0.4-0.6l-0.4-0.9l-0.3,0.3l-0.2,0.5
			l-1-0.2l-0.1-1.2l-0.4-0.5v-0.4l-0.4-0.5l0.1-0.4l-0.4-0.6v-0.4l0.4-0.6l-0.3-0.5v-0.4l-0.4-0.6l-0.1-0.6l0.9-0.4l-0.7-0.6
			l0.2-0.4l-0.2-1.2l0.7-0.9l-0.2-0.3l-0.1-1.2l0.6-1.2l-0.1-1.2l0.4-1.3l-0.6-0.5v-0.4l1.1-0.6l-0.4-0.6v-1.4l0.8-0.4l-0.1-0.4
			l-0.6-0.4l0.3-0.6l-0.1-0.7l0.3-0.6l0.3-1.7l-0.4-0.4l0.7-0.5l-0.7-1l0.2-1.1l0.4-0.7l-0.1-1.2l0.4-0.6l-0.2-0.7l0.3-0.8l-0.2-0.4
			l0.6-0.5l-0.5-0.8l0.6-0.6l0.1-2.5l0.4-1.2l-0.1-1.9l1-0.6l2.6-0.4l1.3,0.4l-0.4,0.6l0.4,0.6V38l0.4,0.4l0.6,0.3l0.2,0.3l-0.1,0.4
			l0.3,1.4l-0.2,0.4l0.6,0.7v1.8l-0.4,0.5l0.2,0.4l0.2,1.5l-0.6,0.4l0.4,0.7l-0.4,0.9l1.2,0.1v0.7l-0.4,1l-0.8,0.6l0.2,0.2l0.8,0.1
			l0.3,0.2l-0.1,0.6l-0.4,0.5l0.1,0.3l-0.4,0.5l0.8,1.1l-0.2,1.2l-0.4,0.6l0.4,0.4l0.4,0.6l0.5,0.1l1.2-1.2l0.3-1l0.9-1l-0.2-0.9
			l0.7-0.8l-0.1-0.7l0.6-0.5l1.4-2l0.3-0.6v-0.4l2-2l0.3-0.7l0.9-1.2l0.4-0.1L126,43l-0.1-0.4l0.8-0.6l0.4-0.5l0.5-0.3l1.1-1.1
			l0.6-0.4l0.6-0.1l0.4,0.2l0.5-0.2l0.6,0.2l0.6-0.1l0.5,0.5l0.5-0.4h0.4l0.6,0.3l0.1,0.6l1.2,0.2l0.3,0.3l-0.1,0.6l0.2,0.4l0.4,0.1
			l0.3,0.4L136,43l0.4,0.6v0.3l-0.4,0.4l0.4,0.4L137,45l0.8,1.9l-0.3,1.1l-0.6,0.4l-0.1,0.4l0.6,0.1l0.1,0.3l-0.4,0.5l0.3,0.8
			l-0.4,0.9l0.1,0.4l-2,0.9l0.1,0.4l-0.2,0.7l1.4,0.7l-0.1,0.4l-1.5,0.5l0.3,0.2h0.8l0.4,0.2l-1.2,2.1l0.1,0.6l-0.4,0.4l-0.2,0.4
			l0.4,0.6l-0.8,0.7l0.4,0.8l-0.3,0.6l-0.1,0.9l-0.9,0.4l-0.4,0.4l0.3,0.2l0.7-0.2l0.2,0.5l-0.3,0.3l-0.6,0.2l0.4,0.2l0.2,0.4
			l-0.5,0.9l-0.4,0.1l-0.2,0.3l0.4,0.9l-1.4,0.2l-0.2,0.3l0.3,0.3h1.8l0.2,0.3l-0.4,0.4l-0.8-0.2l-0.7,0.1l0.1,0.4l1.1,0.6l-0.1,0.4
			l-0.5,0.4l0.2,0.4l-0.1,0.4h-0.4l-1.2,0.6l-1-0.4l-0.3,0.2l0.1,0.3h0.6l0.6,0.4l-0.3,0.5l0.4,0.4l1.4,0.4l-0.2,0.4l-1.2,0.7
			l0.4,0.4l-0.2,0.3l-1.8,0.4l0.1,0.4l0.3,0.2l1.7-0.4l0.4,0.5l-0.3,0.3l-0.6,0.2l-0.8-0.1l-0.6,0.2l-0.2,0.3l-0.4-0.1l-0.3,0.2
			l0.1,0.3l0.4,0.2l0.4-0.4l0.9,0.2l0.5,0.9l0.9,1l1.8-1.5l0.3-0.6l0.6-0.1l0.4-1l0.9-1l0.3-0.7l0.9-0.6l1.2-1.4l0.5-1.2l0.6-0.3
			l0.9-1.3l0.5-0.4l0.1-0.9l0.6-0.3l0.4-1l0.4-0.2l0.5,0.3l-0.3-0.4l0.4-1.1l0.9-0.5l0.1-0.9l0.8-0.5l0.4-0.5v-0.8l0.6-0.6v-0.4
			l0.3-0.5l0.5-0.2l0.2-0.7l0.9-1.1l0.3-0.7l1-0.9l0.2-0.6l0.5-0.2l-0.1-0.6l0.8-1.2l0.7-0.2l0.4-1.2l0.5-0.5l0.1-0.4l1.1-1.2
			l0.2-0.7l0.8-0.3l0.1-1l0.3-0.6h1.1l0.3-0.3l-0.3-0.8l0.1-0.4l0.9-0.1l0.5-0.4h0.4l0.3,0.3l-0.4,1l0.1,0.4l0.6-0.2l0.3,0.1
			l-0.1,0.4l-0.4,0.2h-0.8l-0.3,0.2l0.5,0.8l-0.9,0.7l-0.3,1.2l-0.3,0.3l-0.8-0.2l-0.5,1l0.5,0.1L154.8,53z M106,72l0.3,0.1l0.2-0.3
			H106V72z M106.6,68.5l0.3-0.2l-0.1-0.3h-0.3l-0.2,0.3L106.6,68.5z M110.6,76.4l-0.2,0.5l-0.5-0.1l-0.2-0.3l0.1-0.3l0.6-0.2
			L110.6,76.4z M109.9,53.8l0.5-0.2l-0.1-0.4l-0.5,0.2L109.9,53.8z M115.8,67l-0.4,0.1V67H115.8z M116.5,46.9l-0.3,0.3v-0.4
			L116.5,46.9z M116.5,58.3l-0.2,0.1l0.2,0.1V58.3z M124.1,75.8v-0.2l-0.3-0.1l-0.2,0.3H124.1z M125.4,68.3l-0.1-0.4l-0.3,0.1
			l-0.1,0.3L125.4,68.3z M126.4,66.6l-0.1-0.3l-0.1,0.3H126.4z M126.5,75.1l-0.3-0.2l0.2,0.6L126.5,75.1z M126.8,77.2l-0.4-0.2
			l-0.3,0.1v0.3l0.4,0.2L126.8,77.2z M126.3,69.7l0.3,0.1l0.4-0.4h-0.6V69.7z M127.8,77.3l-0.2-0.4l-0.4-0.1v0.4l0.4,0.3L127.8,77.3
			z M127.4,71.5l-0.2-0.2v0.2H127.4z M128.3,69.3l-0.3-0.1v0.2L128.3,69.3z M128.6,49.9l-0.1,0.3h-0.4v-0.4l0.4-0.2V49.9z
			 M130.5,58.4L130.5,58.4L130.5,58.4L130.5,58.4z M132.6,72.3l-0.1,0.3l-0.5,0.2l-1.1-0.4l0.2-0.3l0.7-0.4h0.8V72.3z M131.2,83
			l0.4-0.1v-0.3l-0.4,0.1L131.2,83z M132,75l0.2,0.3h-0.4l-0.2-0.3H132z M133,59l-0.4-0.1l0.1,0.4h0.4L133,59z M132.9,71.2l-0.3-0.2
			l0.2-0.3l0.3,0.4L132.9,71.2z M136.8,53.6l-0.6,0.4l-0.3-0.1l-0.4-0.6l0.2-0.3l1.2,0.3L136.8,53.6z M136.1,51.4l0.1-0.4l-0.4,0.1
			L136.1,51.4z M136.3,77.1l0.1-0.3h-0.4l-0.2,0.4L136.3,77.1z M136.1,45.8l-0.1,0.3l0.3,0.1L136.1,45.8z M137,47.3l-0.1-0.5h-0.5
			l0.1,0.3l0.3-0.1L137,47.3z M136.9,43.6l0.4-0.4l0.4,0.5l-0.3,0.8l-0.3,0.2L136.9,43.6z"/>
		<path class="st1" d="M160.3,45l0.3-0.1l0.3,0.3l0.1,0.7l-0.4,0.7l-0.8-0.4l0.1,0.4l0.9,0.7v1.3l-0.8,1.1L160,50l0.6,0.4l-0.7,1.7
			l-0.8,0.1l0.5,0.5l-0.2,1l-0.5,0.6l0.6,0.4l-0.6,0.8l-0.3,0.6l-1.2,1.3l0.7,0.9l-0.7,0.7l-0.4-0.1l-0.9,1.1v0.3l0.3,0.2L157,60
			l0.4-0.1l0.1,0.4l-1,1.3l0.1,0.4l0.7,0.4l0.2,0.4l-0.1,0.4l-0.8,0.1l-0.4,0.3L156,65l1-0.4l0.4,0.2l-0.3,0.6l-0.6,0.4l-1,1.1
			l-0.4-0.2l-0.3,0.1l-0.4,0.7h0.4l0.5-0.4l0.4,0.1l0.2,0.4v0.6l-0.3,0.6l0.8,0.1l0.2,0.3l-0.2,0.7l-0.5,0.3l-0.3,0.6l0.7-0.3
			l0.1,0.3l-0.4,0.5l0.1,0.4l-0.2,0.9l1,1.3l-1,1l0.3,0.4l0.4-0.2l0.4-0.5l0.4-0.2v-0.4l1.5-0.3l1.3-0.6l0.3-0.7l1.4-1.3l0.4-0.6
			l0.4-0.1l1.5-1.4l0.5-0.3l0.3-0.6l0.5-0.4l0.3-0.6l0.6-0.4l0.6,0.1l-0.1-0.7l0.8-1.1l1.1-0.9l0.9-1.1l0.9-0.2v-1.1l0.6-1.2
			l1.1,0.4l-0.4-0.4l0.9-1.7l0.6-0.2l0.7-0.9l0.2-0.5l0.4-0.1l0.2-0.3v-0.7l1.1-0.4l0.3-0.3l-0.1-0.3l0.4-1.4l0.6-0.2l0.9-1.2
			l0.4-0.1l0.9-1.9l0.8-0.2l0.4-0.5l0.1-0.7l0.4-0.8l0.7-0.9l0.1-0.4l0.3-0.3l0.7,0.8l0.1-1.2l1.4-0.1l0.3,0.4l-0.4-0.2l-0.3,0.4
			l0.2,0.7l0.6,0.2l-0.2,0.2l0.1,0.6l-0.5-0.5l-0.4,0.1l-0.4-0.2l-0.4-0.5l-0.7,1.2v1.6l-0.3,0.6l-0.4,0.2l-0.5-0.6l-0.5,0.6
			l-0.7,1.3v1.1l-0.4,1l-0.6,0.4l-0.4-0.1l-0.6-0.6h-0.4l0.1,0.5l0.4,0.5l-0.1,0.4l-0.9,1.2l-0.6,0.2l0.5,0.8l-0.4,0.6l-0.6,0.3
			l-0.6,1l-1,1L174,61l-1.1,1.8l-0.8-0.1l-0.4,1.4l-0.7,0.4l-1.1,1.3l-0.5,0.3l-0.3-0.2v-0.4l-0.4,0.1v1l-0.2,0.7l-0.8,1.2l-0.4,0.1
			l-0.7,0.9l-0.6,0.3l-0.4-0.7l-0.5,0.3l-0.1,0.7l0.2,0.6l-1,0.5l-1,1.1l-0.5,0.4l-0.4,0.6h-0.7l-0.4,0.4l0.5,0.6l-0.1,0.4l-1.6,1.5
			l-0.7,0.3l-0.5,0.5l-0.3,0.5l-0.5-0.3l-0.4,0.2l-0.7,1.2l-0.4,0.2l-0.5-0.3l-1.1,0.3l-0.3-0.3l-0.2-0.5l-0.3-0.3l-0.6-0.1
			l-0.8,0.5l-0.9-0.3l-0.3-0.6L151,77l-0.4-0.5l-0.7-0.4l-1.4-1.4l0.1-0.4l-0.4-2l0.1-0.7l-0.7-0.6l0.5-0.5l-0.4-1.3l0.4-1.3l-0.6-1
			l0.6-1.2l-0.3-0.6l0.1-0.7l0.4-0.5l-0.1-0.7l0.3-0.2l-0.3-1l0.2-0.4l0.4-0.2l-0.1-1.8l0.4-0.5l-0.1-0.4l0.3-1.1l0.7-1.1l-0.1-0.7
			l0.5-1.5l0.4-0.5l1.1-2.9l-0.1-0.3l0.5-0.4l0.5-1.3l0.4-0.4L154,46l0.7-1.1l0.6-2l0.7-0.3l0.4-1l0.4-0.2h1l0.7-0.2l0.4,0.2
			l0.3,0.6l0.8,0.2l0.2,1.2h0.4l0.3,0.2l-0.3,1l-0.3-0.2l-0.2,0.3l0.3,0.5L160.3,45z M150.5,72.1l-0.2-0.3l-0.6,0.3v0.4l0.3,0.2
			L150.5,72.1z M150.1,74.7l0.8-0.2v-0.4l-0.2-0.3l-0.6,0.1l-0.3,0.3l-0.1,0.6L150.1,74.7z M151.5,58.9l0.1-0.3l-0.4,0.1L151.5,58.9
			z M151.7,69.5v-0.4l-0.3-0.2l-0.2,0.4L151.7,69.5z M152.6,60.9l0.4-0.2l-0.2-0.4l-0.3-0.1l-0.2,0.4L152.6,60.9z M152.5,71.4
			l0.3,0.1l0.4-1h-0.4l-0.5,0.6L152.5,71.4z M153.8,71v0.4l-0.6,0.8l-0.4,0.1l-0.1,0.4l-0.4,0.3v0.3l0.5-0.4l0.6,0.2l0.3,0.7
			l0.4,0.3l0.3-0.3v-0.4l-0.5-1l0.6-1.4v-0.9l0.4-0.6l-0.7,0.2l-0.5,1L153.8,71z M153.7,64.2l0.2-0.4l-0.6,0.4H153.7z M153.5,61.8
			l0.1,0.3l0.3-0.1l0.4-0.5h-0.5L153.5,61.8z M154.4,59.5l0.2-0.3l-0.4-0.2l-0.3,0.4H154.4z M155.3,60.9H155l-0.6,0.5l0.7,0.2
			l0.4-0.4L155.3,60.9z M154.9,65.5h0.4l0.3-0.3l-0.6-0.3l-0.2,0.3L154.9,65.5z M155.2,52.5l0.3-0.5l-0.3-0.1l-0.3,0.6H155.2z
			 M155.3,63.2l0.2-0.2l-0.3-0.2l-0.2,0.4H155.3z M155.1,74l0.1,0.4h0.3l0.3-0.8l-0.2-0.4l-0.4,0.3V74z M155.2,71.8l0.4,0.1l0.1-0.5
			l-0.4,0.1V71.8z M155.7,75.1l-0.1-0.4l-0.2-0.1l-0.1,0.5L155.7,75.1z M155.8,58.8v-0.6l-0.4,0.4v0.4L155.8,58.8z M155.9,56.7
			l0.1-0.4l-0.3-0.1l-0.2,0.4l0.2,0.3L155.9,56.7z M155.9,58l-0.2-0.5l-0.1,0.4L155.9,58z M156.8,67.4l-0.1,1l-0.3-0.1l-0.1-0.7
			l-0.2-0.2l0.2-0.3h0.5L156.8,67.4z M167.7,21.4l0.4,0.4l0.7,0.3l0.1,0.4l-0.4,0.5l0.4,0.4l0.2,1.3l0.6,0.7l0.1,0.7l-0.8,0.4
			l-0.2,0.3l0.2,0.6l0.6,0.5l-0.2,0.4l-1.1,0.4l-0.2,1.2l-0.5,0.4v0.6l-0.4,0.2l-0.4-0.6l-0.3,0.3l-0.7-0.4l-0.3,0.3l-0.3,0.8
			l-0.4,0.1l-1-0.4V32l-0.3,0.3l-0.6,0.1l-1.2,0.8l-0.4,0.1l-0.2-0.5l0.1-0.4l-1.4-0.3l-0.6-0.4l-0.4-0.5l-0.4-0.2l-0.8-0.9
			l-0.4,0.1l-0.4-0.2l0.2-0.7l-0.1-0.8l-0.7-0.4l-0.2-0.4l0.8-0.9l-0.4-0.1l-0.4-1.2l0.8-1.5l-0.3-0.6l0.9-0.9l-0.1-0.5l0.4-0.1
			l0.8-1.2l0.6,0.2l1-0.3h2.1l0.7-0.4l1.2,0.2l1,0.7l1.2,0.3l0.7-0.1L167.7,21.4z M157.2,48.8l-0.4-0.1l0.1,0.6l0.3,0.2V48.8z
			 M157.3,63.8l-0.3,0.3l-0.2-0.3l0.1-0.2L157.3,63.8z M157.7,53.6l0.2-0.4h-0.4l-0.3,0.4L157.7,53.6z M157.4,54.9l0.4,0.5l0.4-0.7
			l-0.4-0.3l-0.4,0.1V54.9z M157.7,31.3l0.2-0.3l0.3,0.3l-0.2,0.3L157.7,31.3z M158.2,52.4l-0.1-0.3l-0.1,0.3H158.2z M158.5,55.1
			l0.2-0.2l-0.3-0.2l-0.3,0.2L158.5,55.1z M159.7,48.4l0.3-0.5l-0.4-0.4l-0.2,0.7l0.1,0.4L159.7,48.4z M165.1,32.2l-0.1,1.1
			l-0.4,0.4l-0.3-0.2l-0.1-0.8l0.4-0.6l0.3-0.1L165.1,32.2z M166.3,32.5h-0.6l0.1-0.4l0.5-0.1l0.3,0.3L166.3,32.5z M166.2,31.5
			l-0.1,0.2l-0.2-0.2l0.1-0.3L166.2,31.5z M169.1,30.1l-0.4-0.2l0.4-0.3V30.1z M170.9,64l-0.1-0.2l-0.2,0.4l0.2,0.2L170.9,64z
			 M172.6,61l0.5,0.1l0.1-0.4l-0.9,0.2L172.6,61z M174.3,59.7l0.3-0.4l-0.4,0.1L174.3,59.7z M178.5,56.4l-0.4,0.3h-0.4l-0.2-0.2
			l0.9-0.5l0.3,0.1L178.5,56.4z M181,52.4l0.3-0.5l0.3,0.1l0.1,0.4l-0.2,0.4l-0.4,0.2V52.4z M181.6,49.4l-0.2-0.4l-0.2,0.4l0.2,0.4
			L181.6,49.4z M183.5,49.2l-0.7-0.2l0.6-0.4l0.2,0.3L183.5,49.2z"/>
		<path class="st1" d="M193.4,36.7l0.4,0.3l0.4-0.1l0.6,0.3l0.4,0.4l0.6-0.1l1.2,0.8l1.3,2.5l0.1,0.7L199,42l-0.1,0.6l-0.3,0.3
			l-0.3,0.8l0.6,1.2v0.3l-0.8,1.2l-0.2,1.2l-0.6,0.7l0.1,0.4l0.5,0.4v0.4l-0.4,0.5l0.3,0.7l-0.9,1l-1,0.4l-0.8-0.1l-0.1-0.4l0.2-0.7
			l-0.7,0.1l-0.5-0.4l0.3-1l-0.5-0.7l0.9-0.4l-0.4-0.8l0.4-0.7l-0.2-1.3l0.3-1.3l-0.9-1.8l-0.5-0.4l-0.4,0.1l-0.6-0.4l-0.6-0.1
			l-1,0.6l0.1,0.8h-0.8l-0.4,0.2l-0.4,1.2l0.4,0.4l0.1,0.4l-0.3,0.2l-0.7,0.1l-0.2,0.3l0.4,0.5l-0.1,0.6l-0.4,0.2l-0.7,1.2l-0.9,1.1
			l-0.4,0.9l-0.4,0.5l-0.2,0.6l0.1,0.4l-0.8,0.2l-0.1,0.3l0.5,0.7v0.5l-0.7,0.8l-0.2,0.7l-1,0.2l-0.2,0.3l0.4,2l-0.6-0.3l-1.2,0.5
			l0.1,0.4l0.4,0.4l0.9,0.1l0.2,1.2l-1,1v0.4l0.6,0.5l-0.4,0.8l-0.7,0.4l-0.2,0.4l-0.7,0.2l0.1,0.4l0.9,0.4l0.3,1.1v0.7l-0.3,0.5
			l0.4,0.7l-0.4,0.2l-0.2,0.8l0.1,1h0.8l0.4,0.4l0.1,0.4l-0.2,0.6l0.2,0.3l0.7,0.2l0.1,0.4l-0.2,0.6l0.2,0.4l0.6,0.3l0.4,0.6
			l2.2,0.5h2.1l0.7-0.2l0.5-0.5l1.3-0.4l0.6-0.4l0.7-1.1l0.8,0.1l0.1-1.2L195,70l0.5-0.5l0.1-0.4l1.1-0.1l0.4-0.4v-1l2-0.7l-0.3-0.3
			l-0.7-0.3l0.2-0.3h0.7l0.3,0.2l0.6-0.4l0.7-1.1l1.1-0.9l0.6-1.2l-0.4-0.5l0.2-0.4l0.6-0.4l0.7,0.2l1-0.9l0.5-1.2l0.9-0.7l0.3-0.7
			l-0.1-0.4l0.2-0.3h0.4l0.3-0.3l0.6-1.3l0.4-0.4l0.2-0.7l0.8-0.4l1.2-1.7l0.2-0.6l0.5-0.3L211,51l0.8-0.8l0.5-1.3l0.4-0.4l0.6-0.4
			l0.3-0.7l0.6-0.3l0.3,0.3l-0.7,1.2l0.4,0.9l-0.1,0.4l-1.2,1.7l-0.8,0.6l-0.3,0.8l-0.7,0.4l-0.2,1l-0.5,0.4H210l0.1,0.9l-0.2,0.3
			l-0.9,0.4l-0.4,1.4l-0.4,0.6l-1,0.9V60l-0.5,0.4l-0.9,1.2l-0.5,0.4l-0.1,0.4l-1.9,2.2l-0.7,1.3l-0.7-0.3h-0.4l-0.3,0.3v0.4
			l0.4,0.7l-1.1,0.9l-0.4,0.6l-0.9,0.3l-0.3,0.4l0.2,0.6l-0.3,0.3l-0.6,0.2l-0.2-0.4l-0.8,0.6l0.4,0.8l-0.9,1h-0.4l-0.6-0.3
			l-0.8,0.8l-0.6,1.3l-0.7,0.4l-0.1,0.4l-0.4,0.5l-0.6,0.3l-0.4-0.4h-0.4l-0.4,1l-0.4,0.3l-0.7-0.2l-0.5,0.4l-0.6-0.1l-0.6,0.3
			l-0.5-0.1l-1.5,1.1l-1.4,0.1l-0.6-0.6l-1.1,0.3l-1.1-0.4l-0.4-0.4l-0.4-0.7l-0.5-0.3l-1.4-0.3l-0.8,0.1l-0.3-0.2l0.2-1l-0.2-0.2
			l-1,0.3v-1.2l-0.4-1.2l-0.4,0.9l-0.4-0.4l0.2-1.2l-0.7-0.6l-1.2-2.3v-0.7l0.2-0.4l-0.5-0.6l0.3-1.8l0.3-0.4l-0.6-0.5l0.4-0.7
			l-0.4-1.6l0.4-0.5l0.2-3.7l0.3-0.5l0.5-0.4l-0.3-1.2l0.1-0.7l0.5-0.6l0.3-1.3l0.4-0.4l0.7-1.2l0.7-3.2l0.8-0.5L179,46l0.6-0.2
			l0.3-1.3l0.5-0.4l0.4-0.6l0.1-0.7l0.7-0.2l0.5-0.5l0.1-0.4l1.1-0.7l-0.1-0.4l0.2-0.3l0.6,0.1l0.3-0.3l0.3-0.8l0.4-0.4h0.4l1.1-1
			l1.7-0.5l0.7,0.1l0.7-0.3l0.4-0.4l0.4,0.1l0.7-0.6l0.4-0.1l1.3,0.4l0.6-0.3L193.4,36.7z M175.9,51l0.2-0.2l0.1,0.3L175.9,51z
			 M181.8,61.6l-0.2-0.1l0.2,0.4V61.6z M188,77.4v0.4l-0.3-0.1l0.1-0.4L188,77.4z"/>
		<path class="st1" d="M227.7,39.3l1.2,1.5l0.7-0.3l0.8,0.5l0.3,0.6l0.1,0.9l1.2,0.4l-0.7,0.4l0.1,0.6l-0.2,0.3l-1,0.4l-0.4,0.4
			h-0.4l-1.2-0.5l-0.2-0.4l-0.4-0.2l-0.4-0.5l-1.1-0.6l-1.9-0.4l-0.6,0.2l-1.4,2.4l-0.8,0.5l-0.1,0.7l-0.3,0.5l-0.1,0.7l-0.7,0.4
			l0.4,0.6l-1.2,0.8l-0.2,0.3l0.2,0.7l-0.6,0.4l0.2,0.9l-1,0.7v1.1l-0.9,0.4l0.1,0.3l0.5,0.4l-0.7,0.9l0.3,0.6l-0.4,1.5l-0.3,0.4
			l-0.7,0.4l-0.2,0.3l0.2,0.4l-0.4,1.3l0.4,0.4v1.3l-0.3,0.3l-0.8,0.2l0.3,1l-0.9,0.4l-0.4,0.5h1.4l0.2,0.3l-0.8,0.7l-0.2,0.4
			l0.2,0.4l0.8-0.4l0.4,0.3l0.1,0.4l-0.3,0.5l0.9,0.4l0.3,0.6l0.5,0.4l0.8,0.1l0.6,0.3h0.8l0.6-0.3l0.4,0.1l1-0.6l0.4-0.5l0.9-0.5
			l0.4-0.5l0.5,0.2l0.4-0.1l0.8-1.2l0.7-0.1l0.2-0.3l-0.1-0.6l1.1-0.6l0.2-0.8l1.3-0.4l-0.2-1.2l0.4-1.1l0.7-0.2V59l1-0.9l0.6-0.4
			l0.1-0.4l0.9-1l-0.3-0.5l0.8-0.8l0.1-1.6l0.4-1.4l-0.3-0.8l0.6-0.3v-0.4l-0.3-0.5l0.4-0.1l0.7-0.8l-0.1-0.4l0.2-0.7l-0.3-0.5
			l0.3-0.7v-1l1.1-1.2l0.2-1.1l-0.1-0.4l1.1-0.6l0.1-0.3l-0.9-0.3l0.1-0.4l0.7-0.8l-0.2-0.6l0.4-0.4l0.6-0.3l0.4,0.1l0.3-1l0.3-0.2
			l0.8,0.3h0.8l0.7-0.3l2.3,1.7l0.8,1.2l-0.2,0.3l-0.6,0.4l-0.2,0.4l0.3,0.7l-0.1,0.4l0.8,0.6l-0.9,1.2l0.5,0.5v0.4l0.3,0.3l0.5,0.2
			l-0.1,0.4l-1,0.7l-0.1,0.3l0.2,0.3l-0.4,0.5v0.4l0.8,0.1l0.2,0.6l-0.4,0.2l-0.7-0.2l-0.2,0.3l0.4,1h0.4l-0.5,0.2l0.2,0.4l0.5,0.4
			l0.2,0.4l-0.2,0.3l-1.1,0.3l0.3,0.9l-0.5,0.9l1.1,0.1l0.4,0.3l-0.2,0.3l-0.6,0.4l-0.3,1.8l0.4,0.5l-0.2,0.4l-1,0.4l0.7,0.6
			l-0.1,0.4l-0.6,0.4l0.2,0.5l-0.2,0.4l-0.7,0.5v0.6l-0.5,0.4l-1.2,0.4l0.4,0.4l1.3-0.3l1.1,0.4l-0.2,0.4l-1.4,0.4l0.3,0.8l-0.8,0.5
			l-0.6,0.2l-0.3,0.3v0.4l1-0.4l0.8-0.1l0.6,0.9l-0.5,0.3l-0.2,0.3l1.2,0.4l-0.4,0.8l-0.1,0.8l-0.9,0.9l0.2,0.4h0.9l0.2-0.3L242,71
			v0.4l-0.7,0.4l0.2,0.6l-0.8,0.6l0.1,0.4l-0.3,1l0.6,0.3l0.2,0.4l-0.3,0.5l-0.6,0.2v0.6l0.4-0.1l1.2,0.3l-0.1,0.4l-0.3,0.1
			l-0.9-0.4l-0.4,0.2l-0.4,0.7l0.9,0.2l0.1,0.6l-0.5,0.3l-0.8-0.1l-0.6-0.3l-0.5,0.5l-1.3-0.2l1,0.9v0.4l0.6,0.9l-0.4,0.7l0.2,0.3
			l0.4-0.1l1.5-1.2h0.4l0.3,0.3v0.8l1,0.6l-0.1,0.4l-0.4,0.4l-0.6-0.1l-0.3,0.2l0.1,0.6l-0.3,0.3h-0.4l-0.7,1.2l-0.4,0.2l-0.5-0.3
			l0.3-0.7l-0.4-0.1l-0.6,0.2l-0.6-1.1l0.6-0.4l1,0.4v-0.4l-0.5-0.6l-0.3,0.4l-0.8,0.2l-0.4,0.5l-0.1,1.3l-0.4-0.1l-1.3-0.9
			l-0.2,0.2l-0.4-0.1l-1-1.4l0.4-0.5l-0.2-0.4l-0.9,0.4l-1.2-2V79l-0.8-0.4V77l0.3-0.6l-0.7-0.2v-1.1l0.5-0.2l0.3-0.4l-0.4-0.1
			l-0.4-0.4l0.9,0.1l0.4-0.4l-0.4-0.4l-0.6-0.2l-0.2-0.3l0.1-0.8l0.2-0.3l-0.5-0.5l0.4-0.7l-0.2-0.4l0.2-2.1l0.6-0.3l-0.5-0.6
			l-0.3-1.8l0.8-0.1l0.2-0.4l-0.6-0.1l-0.5-0.5h-0.4l-0.8,0.5h-0.4l-0.1,0.7l-0.4,0.2l-0.4,0.6l-0.9,1l-0.8,0.2l-0.3,0.3l0.2,0.6
			l-1.5,1.7h-1.2l-0.5,0.4l0.6,0.9l-0.8,0.7l-0.4,0.6l-1.1,0.3l-0.6-0.1l-0.6,0.2l-0.5-0.1l-0.9,1.1h-1.1l-1.5-0.3l-0.5-0.6
			l-0.8,0.1l-0.7-0.3l-1.1-1l-0.4-0.1v-0.5l-0.3-0.2l-0.7,0.1l-0.8-0.6l-0.8-0.2l-0.4-0.7l0.3-0.7l-1.2-0.1l-0.3-0.2l0.4-0.9
			l-0.2-0.3h-0.7l-0.5-0.3l0.3-0.8l-0.4-1.1l-0.4-0.6v-0.4l0.9-0.6l-0.3-0.3h-0.7l0.4-0.6l-0.4-0.7l0.1-0.7l0.4-0.4l-0.4-0.5
			l0.4-0.6v-2.8l-0.2-0.6l0.1-0.4l0.5-0.5l0.4-0.1l-0.3-0.7l1.1-3.2l0.4-0.5v-0.6l0.8-1l0.2-0.7l0.8-0.6l1.2-1.7V46l1.8-2.4l0.5-0.4
			l0.7-0.2l0.3-0.3l0.2-0.8l1.7-0.9l0.3-0.6l2-1.7L220,39l1.7-0.4l1.2-0.6l0.7,0.4h0.7l0.6,0.3l1.3-0.2l1.3,0.4L227.7,39.3z
			 M212.3,68.4h0.3l-0.1-0.4h-0.3l-0.2,0.4L212.3,68.4z M216.3,71.5l-0.4-0.1l-0.1,0.3l0.4,0.3L216.3,71.5z M216.5,55.7l-0.2-0.5
			H216l-0.1,0.3l0.4,0.4L216.5,55.7z M232.4,75.8l-0.2-0.8l-0.4-0.2v0.4L232,76l0.3,0.2L232.4,75.8z M233.5,77.5v-0.3h-0.3v0.3
			H233.5z M235.5,81.6l-0.3-0.4l-0.3,0.1v0.3l0.4,0.3L235.5,81.6z M235.6,69.1l0.3-0.3l-0.2-0.3l-0.4,0.1l-0.2,0.4L235.6,69.1z
			 M238.3,76.3l0.1,0.4l-1.5,0.7l-0.4-0.4l-1.2,0.3l-0.2,0.2l0.1,0.4l0.4,0.1l0.5-0.2l1.2,0.4l1.2-0.5l0.7,0.4l0.3-0.5l-0.4-0.4
			l-0.1-0.4l0.7-0.6l0.2-0.5l-0.7-0.1l-0.5,0.3l-0.2,0.3V76.3z M235.7,80.7l0.7-0.3l0.2,0.2l0.4-0.1l-0.3-0.4h-1l-0.3,0.3
			L235.7,80.7z M236.6,78.9h-1l-0.1,0.4l0.3,0.2l0.8-0.2V78.9z M235.9,82.9l0.4,0.1l0.3-0.3l-0.6-0.3l-0.3,0.2L235.9,82.9z
			 M236.5,76.6l0.3-0.6h-0.6l-0.4,0.6H236.5z M236.6,73.3V73l-0.3,0.1L236.6,73.3z M237.2,81.9l0.3-1l-0.7,0.3l-0.1,0.7H237.2z
			 M237.9,74.2l-0.8,0.2l-0.4,0.5l0.3,0.2l1.2-0.3l0.7-0.5l-0.2-0.9l-0.6-0.1l0.1,0.8L237.9,74.2z M237.7,80.8l0.5-0.6h-0.6
			l-0.3,0.6H237.7z M237.9,71.9l0.2-0.2v-0.6l-0.5,0.3V72L237.9,71.9z M238.6,71.8l0.4,0.1l-0.3-1.4h-0.3l0.1,0.5l-0.3,0.5
			L238.6,71.8z M238.9,62l0.4-0.4l-0.7,0.4v0.3L238.9,62z M238.9,64.7l0.4-0.2v-0.4l-0.7,0.1l-0.1,0.4L238.9,64.7z M238.9,79.8
			l-0.2-0.4l0.3-0.3l0.7-0.1l0.6,0.3v0.5l-0.4,0.3l-0.8,0.1L238.9,79.8z M239.3,60.9l0.2-0.3l-0.2-0.3l-0.3,0.4L239.3,60.9z
			 M239.4,69.1l-0.2-0.4l-0.2,0.4H239.4z M240.5,68.8l0.2-0.3l-0.4,0.1L240.5,68.8z M240.9,54.4l0.1,0.3h0.4v-0.4l-0.4-0.2
			L240.9,54.4z M241.2,59.2l0.3-0.3l-0.4-0.1l-0.3,0.2l0.1,0.4L241.2,59.2z M241.3,56.2l0.4-0.2l-0.2-0.2h-0.4l-0.1,0.3L241.3,56.2z
			 M242.3,62l0.2,0.4l-0.3,0.6l-0.7,0.3l-0.2-0.3v-0.7l0.7-0.5L242.3,62z M242,73.9l-0.6,0.4v-0.6l0.5-0.3l0.3,0.3L242,73.9z
			 M242.2,65.3l-0.8,0.4v-0.7l0.5-0.3l0.4,0.2L242.2,65.3z M242.8,81l-0.4-0.2l0.4-0.1V81z M242.8,83.6l-0.3,0.2v-0.5L242.8,83.6z
			 M244.1,45.9h-0.4v-0.3l0.5,0.1L244.1,45.9z"/>
		<path class="st1" d="M308.7,14.7l0.1,0.4l0.4,0.4l-0.1,0.4l-0.3,0.2l-0.3,0.5l0.4,0.6l-0.4,1.2l0.3,1.3l-0.4,0.5l-0.1,0.7
			l-0.7,0.7l-1.2,2.6l-1,0.2l-0.1,0.8l-0.4,0.5l-0.8,0.2v0.7l-0.4,0.5l-1.3-0.2l-0.3,0.3l0.4,0.7l-0.3,0.4l-0.4,0.1L302,29l-0.4,0.7
			l0.1,0.4l0.5,0.5l-0.2,0.4l-0.6,0.4l0.1,0.8l-1,0.6L300,34l-1.1-0.4l-0.4,0.1l0.1,0.4l0.5,0.7l-0.1,0.5l-1.2,0.8l-0.5,0.5h-0.7
			l0.2,0.4h0.7l0.6,0.3l-0.6,0.7l-0.1,0.4l-0.6,0.8l-0.3,0.7l-0.7,0.4l-0.1,0.8l-1.2,0.9l-0.3,0.6l-1,0.8v1.8l-0.4,0.1l-0.7-0.2
			l-0.4,0.2l-0.2,0.4l0.2,0.5l0.9,0.3l-0.3,0.6l-0.8,0.2v1.2l-0.2,0.3l-0.6,0.3l0.1,0.4l-1.2,2l0.4,1l-1.7,0.6v1.1l-0.5,0.6
			l-0.2,0.6l-0.6,0.3v0.6l-0.5,0.8l-0.2,0.7l-0.8,0.4l-0.1,0.3l0.5,1h-0.6l-0.4,0.3l0.4,1l-0.2,0.4l-1.4,0.4l0.2,0.6l-1,0.7l0.2,0.4
			l-0.1,0.3l-0.9,0.9l-0.8,2.7l0.1,0.6l-0.6,0.6l-0.4,0.1l-0.6-0.5l-0.2,0.2l0.2,0.4l0.4,0.4l0.1,0.3l-0.4,0.4l-0.7-0.3l0.1,1.5
			l0.3,0.3l0.7,0.1l1.2,0.5l0.7-0.3l0.4,0.2l1.1-0.4l0.3,0.4l0.3-0.2h1.3l0.2,0.5l1.1-0.2l1.5,0.1l0.7,0.6l0.4-0.9l0.4-0.2l0.7,0.6
			l4.3,0.4l0.5,0.7l0.4-0.4l0.4,0.4l0.5-0.4l0.6-0.1l1.8,1l0.2-0.2l-0.1-0.6l1.2,0.4l1.2,0.8l-0.3,0.6l0.4,1l-1,0.3l-0.3,0.3
			l-0.5-0.3l-1,0.4l-0.4,0.4l-3.2-0.1l-0.6-0.4l-0.9,0.4l-1.5-0.2l-1.3,0.2l-1.2-0.4l-1.2,0.3l-0.4-0.1l-0.6-0.4l-0.7,0.2l-0.4,0.3
			h-0.4l-1.2-0.6l-0.6,0.4l-0.8-0.5l-1.7,0.1l-0.7-0.4l-1,0.1l-1.3,0.4l-0.4-0.9l-1.1,0.4l-1,0.8h-1.4l-1.9,1.4l-1,1.6l-0.3,0.1
			l-0.8-0.5l-1.8,0.4l-0.5-0.1l-0.6-0.4l-0.9-0.1l-0.4-1.2l-0.5-0.4h-0.4l-0.1-0.6l-0.4-0.5l0.7-0.3l-0.2-0.4l-0.7-0.6L265,74
			l0.9-0.8l0.2-1.4l1-0.9l-0.2-0.4l0.4-1.9l0.6-0.3l0.4-0.4l-0.1-0.7l1.2-1.8l-0.2-0.6L270,64l-0.2-0.8l1.2-0.8l-0.1-0.6l0.4-0.7
			l0.1-0.7l0.4-0.6v-0.6l0.6-0.9v-0.4l1.2-1.2l-0.3-0.4l0.2-0.5l0.4-0.5l0.4-1.1l-0.1-0.5l0.6-0.4l-0.2-0.4l0.2-0.7l0.7-0.4l0.1-0.3
			l-0.2-0.6l1.2-0.9l0.4-1l0.4-0.1l0.2-0.4h-0.5l0.5-1l-0.1-0.9l1.1-0.3l0.2-0.3l-0.4-0.7l0.9-0.8l0.3-1l1-0.9l0.2-0.5l0.8-0.4
			l0.1-0.8l0.7-0.7v-0.4l0.7-0.7l-0.5-0.2v-0.4l0.4-0.4h0.4l0.5-0.3l0.1-0.8l0.3-0.3l0.5,0.1l0.3-0.4l-0.4-1l1.2-1.2V34l0.4-0.2
			l1-1.2l0.1-0.7l0.3-0.5h0.4l1.1-1.3l-0.2-1l1-0.4l0.1-0.7l0.3-0.3h1.3v-0.4l-0.4-0.7l0.4-0.4l0.9-0.1l-0.3-0.7l0.1-0.4l0.9-0.5
			l0.1-0.7l1.2-0.7l0.4-0.5l0.4-0.1l0.5-0.5l0.3-0.6l1.1-0.7l-0.2-0.6l0.1-0.4l0.9-0.4l0.2-0.4v-0.5l0.4-0.6l-0.4-0.1l-0.8,0.5
			l-0.6-0.6h-0.7l-0.4,0.6H294l-0.5,0.3l-0.5-0.2l-0.3-0.3l-0.7,0.4h-0.6l-0.5-0.3l-0.3-0.6l-2.1-0.1l-0.6,0.3l-0.4-0.1l-0.8,0.2
			l-0.2-0.6l-1.7,0.1l-0.3-0.2h-1l-0.7,0.3l-0.8-0.4h-0.4l-0.4-0.4l-0.5-0.2l-0.2-0.3l0.3-1l0.7-0.4l0.4-0.5l1-0.2l0.9,0.2l0.5,0.4
			l1.2-0.2l1.3,0.4l0.7-0.4l0.4,0.4l0.7,0.1l1.4-0.3l1.2,0.4l0.8,0.1l0.7-0.4l1.2,0.3l1.2-0.6l1.2,0.5l0.9-0.4l1.4,0.4h0.7l0.4-0.2
			l0.7,0.4h0.4l1.2-0.7l1.2-0.4l1-0.7l2-0.2l2,0.8l0.4,0.4L308.7,14.7z M269.9,67v-0.3l-0.3,0.2L269.9,67z M269.8,68l0.3-0.4h-0.3
			V68L269.8,68z M270.6,79.8h-0.4l-0.1-0.3h0.4V79.8z M271.4,63.8l-0.1-0.4H271v0.4l0.2,0.3L271.4,63.8z M273.9,69.8l0.6-0.2
			l-0.5-0.4l-0.3,0.3L273.9,69.8z M274.1,66.9h0.4l-0.2-0.3H274L274.1,66.9z M274.7,59.8l0.2-0.4l-0.3-0.2l-0.2,0.5H274.7z
			 M275,70.7l-0.1-0.7h-0.2l-0.2,0.6l0.2,0.3L275,70.7z M275.1,58.1h-0.4v0.3l0.3,0.1L275.1,58.1z M275.2,63.8v0.3h0.3L275.2,63.8z
			 M276.5,69.3v-0.3l-0.3-0.1v0.4H276.5z M277.6,59l-0.8,0.6l-0.1,0.4l0.9-0.1l0.8,0.5h0.4l0.2-0.3l-1.1-1.2H277.6z M277.3,64.4h0.4
			l0.2-0.4h-0.7L277.3,64.4z M277.6,56.7l-0.2-0.3l0.2-0.4l-0.2-0.3l-0.2,0.7l0.1,0.3l0.3,0.1V56.7z M277.8,66.7l0.1,0.4l0.6-0.2
			l0.6-1.2l-0.3-0.2l-0.6,0.1l-0.3,0.4l0.1,0.4L277.8,66.7z M278.2,58.8l0.3-0.2l0.1-0.4h-0.4l-0.3,0.7L278.2,58.8z M278.3,54.7
			l0.7,0.2l0.5-0.4l-0.3-0.2l-1.1,0.1L278.3,54.7z M278.6,57.2v-0.4l-0.4,0.2L278.6,57.2z M278.9,64v-0.3l-0.3-0.1v0.4L278.9,64z
			 M279.7,62.9l0.8-0.8h-0.7l-0.4,0.5L279.7,62.9z M279.7,59.1l0.7-0.2l0.1-0.2l-0.2-0.4l-0.3-0.1l-0.5,0.4L279.7,59.1z M280.3,61.2
			H280v0.3l0.3,0.2L280.3,61.2z M280.6,54.4l-0.1-0.4l-0.3,0.1L280.6,54.4z M280.9,50.4V50l-0.4,0.4L280.9,50.4z M280.6,70.5
			l-0.2-0.3h0.4L280.6,70.5z M281.1,55.8l0.1-0.3l-0.3-0.2l-0.2,0.3L281.1,55.8z M281.6,54.6l0.4-0.1l0.1-0.4h-0.5l-0.2,0.2v0.4
			L281.6,54.6z M282.1,59l0.1-0.6h-0.4l-0.1,0.7L282.1,59z M282.3,45.2l0.3-0.1l0.1-0.3l-0.6-0.1l-0.1,0.4L282.3,45.2z M282.2,57.2
			l0.4-0.1l0.6,0.2l-0.2-0.4l-0.6-0.3l-0.4,0.2L282.2,57.2z M283.2,65h-0.5l-0.1-0.3l0.4-0.2l0.4,0.1L283.2,65z M282.7,40.5l0.2,0.4
			l0.4,0.1l-0.4-0.8h-0.3L282.7,40.5z M283.1,55.9l0.4,0.2l0.6-0.2v-0.4l-0.8-0.1l-0.3,0.2L283.1,55.9z M283.4,54.3l-0.3,0.2
			l0.2,0.2l1,0.1l1.1-0.9v-0.3l-1.4,0.6L283.4,54.3z M283.4,43.6l0.2-0.1l-0.2-0.4l-0.3-0.1v0.5H283.4z M285,45.3l0.3-0.4l-0.4-0.1
			l-0.3,0.3v0.3H285z M285,42.6v-0.2h-0.2v0.2H285z M287.1,49.1l0.4,0.1l0.4-0.2v-0.4l-0.2-0.3h-0.5l-0.4,0.6L287.1,49.1z
			 M289.1,47.8l0.6,0.4l-0.4,0.5l0.4-0.1l0.4-0.6l-0.4-0.5l-0.6-0.1l-0.2,0.3L289.1,47.8z M289.6,42.4v-0.2h-0.3v0.2H289.6z
			 M290,46.2l0.6,0.4l0.3-0.2L291,46l-0.7-0.3l-0.4,0.1L290,46.2z M291.7,49.7h-0.4l-0.1-0.3l0.4-0.1V49.7z M291.5,42.7h0.7l0.2-0.6
			H292l-0.6,0.3L291.5,42.7z M298.2,19.5v-0.4h-0.4L298.2,19.5L298.2,19.5z M301,31.2l0.4-0.1l-0.7-1.2l0.1,1.2H301z"/>
		<path class="st1" d="M323.5,39.3l1.2,1.5l0.7-0.3l0.8,0.5l0.3,0.6l0.1,0.9l1.2,0.4l-0.7,0.4l0.1,0.6l-0.2,0.3l-1,0.4l-0.4,0.4
			h-0.4l-1.2-0.5l-0.2-0.4l-0.4-0.2l-0.4-0.5l-1.1-0.6l-1.9-0.4l-0.6,0.2l-1.4,2.4l-0.8,0.5l-0.1,0.7l-0.3,0.5l-0.1,0.7l-0.7,0.4
			l0.4,0.6l-1.2,0.8l-0.2,0.3l0.2,0.7l-0.6,0.4l0.2,0.9l-1,0.7v1.1l-0.9,0.4l0.1,0.3l0.5,0.4l-0.7,0.9l0.3,0.6l-0.4,1.5l-0.3,0.4
			l-0.7,0.4l-0.2,0.3l0.2,0.4l-0.4,1.3l0.4,0.4v1.3l-0.3,0.3l-0.8,0.2l0.3,1l-0.9,0.4l-0.4,0.5h1.4l0.2,0.3l-0.8,0.7l-0.2,0.4
			l0.2,0.4l0.8-0.4l0.4,0.3l0.1,0.4l-0.3,0.5l0.9,0.4l0.3,0.6l0.5,0.4l0.8,0.1l0.6,0.3h0.8l0.6-0.3l0.4,0.1l1-0.6l0.4-0.5l0.9-0.5
			l0.4-0.5l0.5,0.2l0.4-0.1l0.8-1.2l0.7-0.1l0.2-0.3l-0.1-0.6l1.1-0.6l0.2-0.8l1.3-0.4l-0.2-1.2l0.4-1.1l0.7-0.2V59l1-0.9l0.6-0.4
			l0.1-0.4l0.9-1l-0.3-0.5l0.8-0.8l0.1-1.6l0.4-1.4l-0.3-0.8l0.6-0.3v-0.4l-0.3-0.5l0.4-0.1l0.7-0.8l-0.1-0.4l0.2-0.7l-0.3-0.5
			l0.3-0.7v-1l1.1-1.2l0.2-1.1l-0.1-0.4l1.1-0.6l0.1-0.3l-0.9-0.3l0.1-0.4l0.7-0.8l-0.2-0.6l0.4-0.4l0.6-0.3l0.4,0.1l0.3-1l0.3-0.2
			l0.8,0.3h0.8l0.7-0.3l2.3,1.7l0.8,1.2l-0.2,0.3l-0.6,0.4l-0.2,0.4l0.3,0.7l-0.1,0.4l0.8,0.6l-0.9,1.2l0.5,0.5v0.4l0.3,0.3l0.5,0.2
			l-0.1,0.4l-1,0.7l-0.1,0.3l0.2,0.3l-0.4,0.5v0.4l0.8,0.1l0.2,0.6l-0.4,0.2l-0.7-0.2l-0.2,0.3l0.4,1h0.4l-0.5,0.2l0.2,0.4l0.5,0.4
			l0.2,0.4l-0.2,0.3l-1.1,0.3l0.3,0.9l-0.5,0.9L339,55l0.4,0.3l-0.2,0.3l-0.6,0.4l-0.3,1.8l0.4,0.5l-0.2,0.4l-1,0.4l0.7,0.6
			l-0.1,0.4l-0.6,0.4l0.2,0.5l-0.2,0.4l-0.7,0.5v0.6l-0.5,0.4l-1.2,0.4l0.4,0.4l1.3-0.3l1.1,0.4l-0.2,0.4l-1.4,0.4l0.3,0.8l-0.8,0.5
			l-0.6,0.2l-0.3,0.3v0.4l1-0.4l0.8-0.1l0.6,0.9l-0.5,0.3l-0.2,0.3l1.2,0.4l-0.4,0.8l-0.1,0.8l-0.9,0.9l0.2,0.4h0.9l0.2-0.3l0.4,0.4
			v0.4l-0.7,0.4l0.2,0.6l-0.8,0.6l0.1,0.4l-0.3,1l0.6,0.3l0.2,0.4l-0.3,0.5l-0.6,0.2v0.6l0.4-0.1l1.2,0.3l-0.1,0.4l-0.3,0.1
			l-0.9-0.4l-0.4,0.2l-0.4,0.7l0.9,0.2l0.1,0.6l-0.5,0.3l-0.8-0.1l-0.6-0.3l-0.5,0.5l-1.3-0.2l1,0.9v0.4l0.6,0.9l-0.4,0.7l0.2,0.3
			l0.4-0.1l1.5-1.2h0.4l0.3,0.3v0.8l1,0.6l-0.1,0.4l-0.4,0.4l-0.6-0.1l-0.3,0.2l0.1,0.6l-0.3,0.3h-0.4l-0.7,1.2l-0.4,0.2l-0.5-0.3
			l0.3-0.7l-0.4-0.1l-0.6,0.2l-0.6-1.1l0.6-0.4l1,0.4v-0.4l-0.5-0.6l-0.3,0.4l-0.8,0.2l-0.4,0.5l-0.1,1.3l-0.4-0.1l-1.3-0.9
			l-0.2,0.2l-0.4-0.1l-1-1.4l0.4-0.5l-0.2-0.4l-0.9,0.4l-1.2-2V79l-0.8-0.4V77l0.3-0.6l-0.7-0.2v-1.1l0.5-0.2l0.3-0.4l-0.4-0.1
			l-0.4-0.4l0.9,0.1l0.4-0.4l-0.4-0.4l-0.6-0.2l-0.2-0.3l0.1-0.8l0.2-0.3l-0.5-0.5l0.4-0.7l-0.2-0.4l0.2-2.1l0.6-0.3l-0.5-0.6
			l-0.3-1.8l0.8-0.1l0.2-0.4l-0.6-0.1l-0.5-0.5h-0.4l-0.8,0.5h-0.4l-0.1,0.7l-0.4,0.2l-0.4,0.6l-0.9,1l-0.8,0.2l-0.3,0.3l0.2,0.6
			l-1.5,1.7h-1.2l-0.5,0.4l0.6,0.9l-0.8,0.7l-0.4,0.6l-1.1,0.3l-0.6-0.1l-0.6,0.2l-0.5-0.1l-0.9,1.1h-1.1l-1.5-0.3l-0.5-0.6
			l-0.8,0.1l-0.7-0.3l-1.1-1l-0.4-0.1v-0.5l-0.3-0.2l-0.7,0.1l-0.8-0.6l-0.8-0.2l-0.4-0.7l0.3-0.7l-1.2-0.1l-0.3-0.2l0.4-0.9
			l-0.2-0.3h-0.7l-0.5-0.3l0.3-0.8l-0.4-1.1l-0.4-0.6v-0.4l0.9-0.6l-0.3-0.3h-0.7l0.4-0.6l-0.4-0.7l0.1-0.7l0.4-0.4l-0.4-0.5
			l0.4-0.6v-2.8l-0.2-0.6l0.1-0.4l0.5-0.5l0.4-0.1l-0.3-0.7l1.1-3.2l0.4-0.5v-0.6l0.8-1l0.2-0.7l0.8-0.6l1.2-1.7V46l1.8-2.4l0.5-0.4
			l0.7-0.2l0.3-0.3l0.2-0.8L313,41l0.3-0.6l2-1.7l0.5,0.4l1.7-0.4l1.2-0.6l0.7,0.4h0.7l0.6,0.3l1.3-0.2l1.3,0.4L323.5,39.3z
			 M308.1,68.4h0.3l-0.1-0.4h-0.3l-0.2,0.4L308.1,68.4z M312.1,71.5l-0.4-0.1l-0.1,0.3l0.4,0.3L312.1,71.5z M312.4,55.7l-0.2-0.5
			h-0.4l-0.1,0.3l0.4,0.4L312.4,55.7z M328.2,75.8l-0.2-0.8l-0.4-0.2v0.4l0.3,0.7l0.3,0.2L328.2,75.8z M329.4,77.5v-0.3h-0.3v0.3
			H329.4z M331.3,81.6l-0.3-0.4l-0.3,0.1v0.3l0.4,0.3L331.3,81.6z M331.4,69.1l0.3-0.3l-0.2-0.3l-0.4,0.1l-0.2,0.4L331.4,69.1z
			 M334.2,76.3l0.1,0.4l-1.5,0.7l-0.4-0.4l-1.2,0.3l-0.2,0.2l0.1,0.4l0.4,0.1l0.5-0.2l1.2,0.4l1.2-0.5L335,78l0.3-0.5l-0.4-0.4
			l-0.1-0.4l0.7-0.6l0.2-0.5l-0.7-0.1l-0.5,0.3l-0.2,0.3V76.3z M331.5,80.7l0.7-0.3l0.2,0.2l0.4-0.1l-0.3-0.4h-1l-0.3,0.3
			L331.5,80.7z M332.5,78.9h-1l-0.1,0.4l0.3,0.2l0.8-0.2V78.9z M331.8,82.9l0.4,0.1l0.3-0.3l-0.6-0.3l-0.3,0.2L331.8,82.9z
			 M332.4,76.6l0.3-0.6h-0.6l-0.4,0.6H332.4z M332.5,73.3V73l-0.3,0.1L332.5,73.3z M333,81.9l0.3-1l-0.7,0.3l-0.1,0.7H333z
			 M333.7,74.2l-0.8,0.2l-0.4,0.5l0.3,0.2l1.2-0.3l0.7-0.5l-0.2-0.9l-0.6-0.1l0.1,0.8L333.7,74.2z M333.6,80.8l0.5-0.6h-0.6
			l-0.3,0.6H333.6z M333.7,71.9l0.2-0.2v-0.6l-0.5,0.3V72L333.7,71.9z M334.5,71.8l0.4,0.1l-0.3-1.4h-0.3l0.1,0.5l-0.3,0.5
			L334.5,71.8z M334.7,62l0.4-0.4l-0.7,0.4v0.3L334.7,62z M334.7,64.7l0.4-0.2v-0.4l-0.7,0.1l-0.1,0.4L334.7,64.7z M334.8,79.8
			l-0.2-0.4l0.3-0.3l0.7-0.1l0.6,0.3v0.5l-0.4,0.3l-0.8,0.1L334.8,79.8z M335.2,60.9l0.2-0.3l-0.2-0.3l-0.3,0.4L335.2,60.9z
			 M335.3,69.1l-0.2-0.4l-0.2,0.4H335.3z M336.4,68.8l0.2-0.3l-0.4,0.1L336.4,68.8z M336.8,54.4l0.1,0.3h0.4v-0.4l-0.4-0.2
			L336.8,54.4z M337.1,59.2l0.3-0.3l-0.4-0.1l-0.3,0.2l0.1,0.4L337.1,59.2z M337.2,56.2l0.4-0.2l-0.2-0.2H337l-0.1,0.3L337.2,56.2z
			 M338.2,62l0.2,0.4l-0.3,0.6l-0.7,0.3l-0.2-0.3v-0.7l0.7-0.5L338.2,62z M337.8,73.9l-0.6,0.4v-0.6l0.5-0.3l0.3,0.3L337.8,73.9z
			 M338.1,65.3l-0.8,0.4v-0.7l0.5-0.3l0.4,0.2L338.1,65.3z M338.7,81l-0.4-0.2l0.4-0.1V81z M338.7,83.6l-0.3,0.2v-0.5L338.7,83.6z
			 M340,45.9h-0.4v-0.3l0.5,0.1L340,45.9z"/>
		<path class="st1" d="M359.3,36.4l0.8,0.5v0.4l0.9,0.8l-0.7,0.8l0.2,0.6l-0.1,0.4h0.7l0.1,0.4l-0.4,0.9l-1,0.4l0.6,0.7l-0.5,0.8
			l0.9,0.7l-0.8,0.6l0.3,0.4l-0.9,0.5l-0.5,0.5l1.2-0.2l0.7,0.1l0.1,0.4l-0.7,0.7l0.1,1l-0.2,0.3l0.4,0.6l-0.6,1.2l0.1,1l0.3,0.6
			l0.4-0.1l0.6,0.2l0.3-0.2l0.4-0.6l-0.1-0.9l0.7-0.1v-1.2l0.8-0.8l0.3-0.7l0.9-1.1v-0.4l0.6-0.4l0.4-1l0.9-1l0.1-1l1-0.4l0.2-0.8
			h0.5l0.8-1.3l0.4-0.1l1.1-0.9l0.7-0.2l1.2-0.6h0.7l0.4,0.2l1.2-0.2l0.7,0.7h0.5l0.2,0.3l1.5,0.4l0.3,0.9l-0.6,0.9v0.3l0.4-0.1
			l0.6,0.3l0.1,0.6l-0.8,0.7l0.4,0.4l-0.4,0.6l0.7,0.4v0.4l-0.7,1l0.1,1.8l-1.1,0.5l0.8,0.7l-0.4,0.7L377,50v1.2l-0.4,0.5h-0.7
			l0.2,1.6l0.2,0.4l0.5,0.4l-0.6,0.4l-0.2,0.4l0.3,0.7l-0.2,0.8l-1.1,0.8l-0.2,0.6l-1.3,0.9l-0.6,0.1l-1-0.7h-0.5l-0.4-0.7l-0.4,0.1
			l-1-0.4l0.2-0.6l-1.2-0.6l-0.2-0.3l0.2-0.4l0.5-0.4l-0.7-0.6l0.1-0.4l-0.3-1l0.2-0.3l0.7-0.3l0.2-1.3l-0.6-0.2l0.4-1.9l0.4-0.5
			v-0.6l0.7-0.1l0.2-0.3l-0.2-0.3l-0.7-0.4l1.3-3l-0.1-0.8l-0.4,0.1l-0.2,0.5l-1.3,1.1l-0.8,1.2l-0.1,0.6l-0.7,0.4l-0.4,0.5
			l-0.1,0.7L366,49l-1.1,0.9l0.2,0.6l-0.4,0.6l0.4,0.4l-0.8,0.3l-0.3,1.1l-0.4,0.4l-0.4-0.1l-0.4,0.2l0.4,1.2l-0.4,0.2l-0.7-0.2
			l-0.3,0.3V56l-0.4,0.3H361l-0.1,1.2l-0.6,0.4l-0.3,0.7l-0.4,0.5h-0.5l-0.3,0.3v0.8l-0.6,1v1.3l-0.7,0.9l0.2,1l-0.4,2.8l-0.6,0.4
			l0.1,0.6l-0.7,0.4l-0.3-0.2l-0.4-0.6l-0.3,0.2l-0.1,1l1,0.4l-0.1,1.7l-0.6,0.2l-0.4-0.6l-0.4-0.1l-0.3,0.4l-1.1,0.9l0.3,0.2
			l0.4-0.1v1.2l0.4,0.5l-0.4,0.5l-0.6-0.1l-0.6-0.4l-0.4,0.4l0.8,0.8v0.4l-1.2,0.5l-0.2,0.7l-2,0.4l-0.6-0.1l-0.6-0.5l0.2-0.5
			l-0.3-0.3l-0.7-0.1l-1.4-1.8l0.8-0.5l-0.2-0.3h-0.8l-0.3-0.4l0.1-1.2l1-0.6l-0.1-0.3l-1.1-0.4l0.4-1.7l0.3-0.5l-0.4-0.6l0.5-0.4
			l-0.2-0.4l0.1-0.9l0.3-0.3l-0.1-0.8l0.2-0.4l-0.3-0.6l0.1-0.4l0.7-0.7l-0.1-1.2l0.5-1.3l-0.4-0.6l0.9-1.2l0.2-1.4l-0.1-0.4
			l0.5-0.7l-0.5-0.7l0.4-0.5l0.6-0.4l-0.1-0.4l0.7-1l-0.3-0.4l0.3-0.5l-0.2-0.8l0.7-0.8l-0.3-0.9l0.2-0.4l-0.4-0.8l0.5-0.4l0.2-0.9
			l0.8-0.9v-0.7l0.2-0.4l-0.5-0.4l0.2-0.6l1-0.3l-0.1-0.4h-0.4l-0.2-0.3l0.3-1.7l0.5-1l0.8-0.4l-0.5-1.1l0.1-0.4l-0.2-0.6l0.8-1.2
			l0.2-0.6l1.3-1.1l0.4,0.1l1.5-0.2l0.4,0.4l0.7,0.1l1.2,0.6L359.3,36.4z M346.4,72.3l0.4-0.1l-0.4-0.1V72.3z M353.6,70.3l0.4-0.1
			l0.1-0.3l-0.4-0.2l-0.3,0.3L353.6,70.3z M354.2,72.6l-0.1-0.8l0.4-0.2L355,72l-0.2,0.7l-0.4,0.2L354.2,72.6z M354.9,63.6l-0.1-0.3
			l-0.3-0.1l-0.1,0.4L354.9,63.6z M355.3,57.1l0.6-0.4l-0.3-0.2l-0.6,0.2l-0.1,0.4H355.3z M356.2,65.3V65H356l-0.1,0.4H356.2z
			 M356.9,69.8v-0.3l0.3-0.1L356.9,69.8z M358.1,52.8l0.4-0.1l-0.1-0.4h-0.5v0.4L358.1,52.8z M358.3,54l0.3,0.2l0.7,0.1l0.4-0.4
			l-0.8-0.3l-0.7,0.1L358.3,54z M358.9,52.7l0.3,0.4l0.4-0.3l0.5,0.4l0.7-0.3l0.2-0.3l-0.6-0.4l-0.2-0.4l-1.2,0.4V52.7z M359.4,44.4
			l0.2-0.4h-0.4l-0.2,0.4L359.4,44.4z M365.9,50.3l-0.4,0.1l-0.2-0.2l0.4-0.4l0.3,0.2L365.9,50.3z M369.3,43.4l0.3-0.2l0.1-0.4
			l-0.7,0.2l-0.1,0.4H369.3z M372.4,59.3v0.4l-0.3-0.1l0.1-0.3H372.4z"/>
		<path class="st1" d="M401.3,39.3l1.2,1.5l0.7-0.3l0.8,0.5l0.3,0.6l0.1,0.9l1.2,0.4l-0.7,0.4l0.1,0.6l-0.2,0.3l-1,0.4l-0.4,0.4H403
			l-1.2-0.5l-0.2-0.4l-0.4-0.2l-0.4-0.5l-1.1-0.6l-1.9-0.4l-0.6,0.2l-1.4,2.4l-0.8,0.5l-0.1,0.7l-0.3,0.5l-0.1,0.7l-0.7,0.4l0.4,0.6
			l-1.2,0.8l-0.2,0.3l0.2,0.7l-0.6,0.4l0.2,0.9l-1,0.7v1.1l-0.9,0.4l0.1,0.3l0.5,0.4l-0.7,0.9l0.3,0.6l-0.4,1.5l-0.3,0.4l-0.7,0.4
			l-0.2,0.3l0.2,0.4l-0.4,1.3l0.4,0.4v1.3l-0.3,0.3l-0.8,0.2l0.3,1l-0.9,0.4l-0.4,0.5h1.4l0.2,0.3l-0.8,0.7l-0.2,0.4l0.2,0.4
			l0.8-0.4l0.4,0.3l0.1,0.4l-0.3,0.5l0.9,0.4l0.3,0.6l0.5,0.4l0.8,0.1l0.6,0.3h0.8l0.6-0.3l0.4,0.1l1-0.6l0.4-0.5l0.9-0.5l0.4-0.5
			l0.5,0.2l0.4-0.1l0.8-1.2l0.7-0.1l0.2-0.3l-0.1-0.6l1.1-0.6l0.2-0.8l1.3-0.4l-0.2-1.2l0.4-1.1l0.7-0.2V59l1-0.9l0.6-0.4l0.1-0.4
			l0.9-1l-0.3-0.5l0.8-0.8l0.1-1.6l0.4-1.4l-0.3-0.8l0.6-0.3v-0.4l-0.3-0.5L407,50l0.7-0.8l-0.1-0.4l0.2-0.7l-0.3-0.5l0.3-0.7v-1
			l1.1-1.2l0.2-1.1l-0.1-0.4l1.1-0.6l0.1-0.3l-0.9-0.3l0.1-0.4l0.7-0.8l-0.2-0.6l0.4-0.4l0.6-0.3l0.4,0.1l0.3-1l0.3-0.2l0.8,0.3h0.8
			l0.7-0.3l2.3,1.7l0.8,1.2l-0.2,0.3l-0.6,0.4l-0.2,0.4l0.3,0.7l-0.1,0.4l0.8,0.6l-0.9,1.2l0.5,0.5v0.4l0.3,0.3l0.5,0.2l-0.1,0.4
			l-1,0.7l-0.1,0.3l0.2,0.3l-0.4,0.5v0.4l0.8,0.1l0.2,0.6l-0.4,0.2l-0.7-0.2l-0.2,0.3l0.4,1h0.4l-0.5,0.2l0.2,0.4l0.5,0.4l0.2,0.4
			l-0.2,0.3l-1.1,0.3l0.3,0.9l-0.5,0.9l1.1,0.1l0.4,0.3l-0.2,0.3l-0.6,0.4l-0.3,1.8l0.4,0.5l-0.2,0.4l-1,0.4l0.7,0.6l-0.1,0.4
			l-0.6,0.4l0.2,0.5l-0.2,0.4l-0.7,0.5v0.6l-0.5,0.4l-1.2,0.4l0.4,0.4l1.3-0.3l1.1,0.4l-0.2,0.4l-1.4,0.4l0.3,0.8l-0.8,0.5l-0.6,0.2
			l-0.3,0.3v0.4l1-0.4l0.8-0.1L415,67l-0.5,0.3l-0.2,0.3l1.2,0.4l-0.4,0.8l-0.1,0.8l-0.9,0.9l0.2,0.4h0.9l0.2-0.3l0.4,0.4v0.4
			l-0.7,0.4l0.2,0.6l-0.8,0.6l0.1,0.4l-0.3,1l0.6,0.3l0.2,0.4l-0.3,0.5l-0.6,0.2v0.6l0.4-0.1l1.2,0.3l-0.1,0.4l-0.3,0.1l-0.9-0.4
			l-0.4,0.2l-0.4,0.7l0.9,0.2l0.1,0.6l-0.5,0.3l-0.8-0.1l-0.6-0.3l-0.5,0.5l-1.3-0.2l1,0.9v0.4l0.6,0.9l-0.4,0.7l0.2,0.3l0.4-0.1
			l1.5-1.2h0.4l0.3,0.3v0.8l1,0.6l-0.1,0.4l-0.4,0.4l-0.6-0.1l-0.3,0.2l0.1,0.6l-0.3,0.3H414l-0.7,1.2l-0.4,0.2l-0.5-0.3l0.3-0.7
			l-0.4-0.1l-0.6,0.2l-0.6-1.1l0.6-0.4l1,0.4v-0.4l-0.5-0.6l-0.3,0.4l-0.8,0.2l-0.4,0.5l-0.1,1.3l-0.4-0.1l-1.3-0.9l-0.2,0.2
			l-0.4-0.1l-1-1.4l0.4-0.5l-0.2-0.4l-0.9,0.4l-1.2-2V79l-0.8-0.4V77l0.3-0.6l-0.7-0.2v-1.1l0.5-0.2l0.3-0.4l-0.4-0.1L404,74
			l0.9,0.1l0.4-0.4l-0.4-0.4l-0.6-0.2l-0.2-0.3l0.1-0.8l0.2-0.3l-0.5-0.5l0.4-0.7l-0.2-0.4l0.2-2.1l0.6-0.3l-0.5-0.6l-0.3-1.8
			l0.8-0.1l0.2-0.4l-0.6-0.1l-0.5-0.5h-0.4l-0.8,0.5h-0.4l-0.1,0.7l-0.4,0.2l-0.4,0.6l-0.9,1l-0.8,0.2l-0.3,0.3l0.2,0.6l-1.5,1.7
			h-1.2l-0.5,0.4l0.6,0.9l-0.8,0.7l-0.4,0.6l-1.1,0.3l-0.6-0.1l-0.6,0.2l-0.5-0.1l-0.9,1.1H391l-1.5-0.3l-0.5-0.6l-0.8,0.1l-0.7-0.3
			l-1.1-1l-0.4-0.1v-0.5l-0.3-0.2l-0.7,0.1l-0.8-0.6l-0.8-0.2l-0.4-0.7l0.3-0.7l-1.2-0.1l-0.3-0.2l0.4-0.9l-0.2-0.3h-0.7l-0.5-0.3
			l0.3-0.8l-0.4-1.1l-0.4-0.6v-0.4l0.9-0.6l-0.3-0.3h-0.7l0.4-0.6l-0.4-0.7l0.1-0.7l0.4-0.4l-0.4-0.5l0.4-0.6v-2.8l-0.2-0.6l0.1-0.4
			l0.5-0.5l0.4-0.1l-0.3-0.7l1.1-3.2l0.4-0.5v-0.6l0.8-1l0.2-0.7l0.8-0.6l1.2-1.7V46l1.8-2.4l0.5-0.4l0.7-0.2l0.3-0.3l0.2-0.8
			l1.7-0.9l0.3-0.6l2-1.7l0.5,0.4l1.7-0.4l1.2-0.6l0.7,0.4h0.7l0.6,0.3l1.3-0.2l1.3,0.4L401.3,39.3z M385.9,68.4h0.3l-0.1-0.4h-0.3
			l-0.2,0.4L385.9,68.4z M389.9,71.5l-0.4-0.1l-0.1,0.3l0.4,0.3L389.9,71.5z M390.2,55.7l-0.2-0.5h-0.4l-0.1,0.3l0.4,0.4L390.2,55.7
			z M406,75.8l-0.2-0.8l-0.4-0.2v0.4l0.3,0.7l0.3,0.2L406,75.8z M407.1,77.5v-0.3h-0.3v0.3H407.1z M409.1,81.6l-0.3-0.4l-0.3,0.1
			v0.3l0.4,0.3L409.1,81.6z M409.2,69.1l0.3-0.3l-0.2-0.3l-0.4,0.1l-0.2,0.4L409.2,69.1z M411.9,76.3l0.1,0.4l-1.5,0.7l-0.4-0.4
			l-1.2,0.3l-0.2,0.2l0.1,0.4l0.4,0.1l0.5-0.2l1.2,0.4l1.2-0.5l0.7,0.4l0.3-0.5l-0.4-0.4l-0.1-0.4l0.7-0.6l0.2-0.5l-0.7-0.1
			l-0.5,0.3l-0.2,0.3V76.3z M409.3,80.7l0.7-0.3l0.2,0.2l0.4-0.1l-0.3-0.4h-1l-0.3,0.3L409.3,80.7z M410.2,78.9h-1l-0.1,0.4l0.3,0.2
			l0.8-0.2V78.9z M409.5,82.9l0.4,0.1l0.3-0.3l-0.6-0.3l-0.3,0.2L409.5,82.9z M410.1,76.6l0.3-0.6h-0.6l-0.4,0.6H410.1z M410.2,73.3
			V73l-0.3,0.1L410.2,73.3z M410.8,81.9l0.3-1l-0.7,0.3l-0.1,0.7H410.8z M411.5,74.2l-0.8,0.2l-0.4,0.5l0.3,0.2l1.2-0.3l0.7-0.5
			l-0.2-0.9l-0.6-0.1l0.1,0.8L411.5,74.2z M411.3,80.8l0.5-0.6h-0.6l-0.3,0.6H411.3z M411.5,71.9l0.2-0.2v-0.6l-0.5,0.3V72
			L411.5,71.9z M412.2,71.8l0.4,0.1l-0.3-1.4h-0.3l0.1,0.5l-0.3,0.5L412.2,71.8z M412.5,62l0.4-0.4l-0.7,0.4v0.3L412.5,62z
			 M412.5,64.7l0.4-0.2v-0.4l-0.7,0.1l-0.1,0.4L412.5,64.7z M412.5,79.8l-0.2-0.4l0.3-0.3l0.7-0.1l0.6,0.3v0.5l-0.4,0.3l-0.8,0.1
			L412.5,79.8z M412.9,60.9l0.2-0.3l-0.2-0.3l-0.3,0.4L412.9,60.9z M413,69.1l-0.2-0.4l-0.2,0.4H413z M414.1,68.8l0.2-0.3l-0.4,0.1
			L414.1,68.8z M414.5,54.4l0.1,0.3h0.4v-0.4l-0.4-0.2L414.5,54.4z M414.9,59.2l0.3-0.3l-0.4-0.1l-0.3,0.2l0.1,0.4L414.9,59.2z
			 M414.9,56.2l0.4-0.2l-0.2-0.2h-0.4l-0.1,0.3L414.9,56.2z M415.9,62l0.2,0.4l-0.3,0.6l-0.7,0.3l-0.2-0.3v-0.7l0.7-0.5L415.9,62z
			 M415.6,73.9l-0.6,0.4v-0.6l0.5-0.3l0.3,0.3L415.6,73.9z M415.8,65.3l-0.8,0.4v-0.7l0.5-0.3l0.4,0.2L415.8,65.3z M416.5,81
			l-0.4-0.2l0.4-0.1V81z M416.5,83.6l-0.3,0.2v-0.5L416.5,83.6z M417.7,45.9h-0.4v-0.3l0.5,0.1L417.7,45.9z"/>
		<path class="st1" d="M440.5,23l0.8,0.1l0.7,0.6l0.1,1.2l0.6,1.2l-0.5,0.7l0.2,0.4l-0.1,0.6l-0.4,0.5l0.4,0.7l-0.4,0.7l0.3,0.4h1.2
			l1.2,0.3l0.5-0.3h1.9l0.4,0.3l0.4-0.4l0.7-0.3l1,0.4l0.6-0.3h0.7l0.8,0.3l0.8-0.6l1.2,0.1l0.6,0.3l0.8-0.4l0.4,0.1l0.6,1l0.8,0.6
			l-0.1,0.3l-0.5,0.4l-0.8-0.1l-0.3-0.2l-2.2,0.9l-1.6-0.2l-0.5,0.6l-1.1-0.3l-1.2,0.7l-0.6-0.4l-0.4-0.7l-1,0.2v0.7l-0.8,0.4
			l-0.4-0.1l-0.3-0.3l-0.6-0.1l-1.2,0.4l-0.7-0.4l-0.6,0.3l-0.1,0.4l0.2,0.6l-0.4,1l0.1,0.3l-0.6,1.8l-0.6,0.5l0.3,2.3l-0.3,0.2
			l-1.1-0.1l-0.6,0.3l0.1,0.3l0.8,0.1l0.2,0.7l-0.4,0.5l-0.4,0.1l0.6,1.3l-0.4,0.8l0.3,0.8l-1.4,0.8l0.2,0.4l1-0.1l-0.6,2.5l0.3,0.5
			l-0.5,0.4l0.4,0.6l-0.3,0.6l-0.9,1.1l-0.1,0.4l0.3,0.6l0.7-0.1v0.4L438,54l-0.3,1.2l0.2,0.6l-0.6,0.7l0.4,0.9l-0.2,0.7l0.4,0.7
			l-0.7,0.5l0.3,0.6l-0.3,0.6l-0.4,0.1l-0.1,1.4l0.2,0.8l-0.6,0.2l-0.6-0.2l-0.2,0.3l0.1,0.3l0.6,0.2l0.3,0.3l-0.1,0.4l-0.6,0.3
			l-0.8,0.1l0.7,1.2l-0.7,0.9l0.5,0.4l-0.2,1.4l-1.1,0.2l-0.2,0.2l1,1l0.4,0.6l0.1,0.6l-0.4,0.4l-0.7,1.2l0.3,0.3l0.7,0.3h0.6
			l0.5-0.6l0.4,0.2l1.4-0.9l0.7-0.3l1.6-1.5v-0.4l0.7-0.4l0.9,0.2l0.2-0.4l-0.9-0.2l0.6-0.9l1.2-1l0.4,0.1l0.5-0.3l0.1-0.8l1.4-0.6
			l0.3-0.6l1.2-0.9l0.5-1.2l2.1-2l0.4-0.5l0.8-0.2l0.4-0.4v-0.9l0.9-0.5l0.4-0.5l0.6-0.3v-1l0.4-0.4l0.6-0.3v-0.4l0.8-0.9V54
			l0.4-0.2l0.8,0.2l0.2-0.2l-0.2-0.7l0.2-0.3l0.6-0.3l0.4-0.5l-0.4-0.6l0.3-0.5l0.8,0.3l0.6-0.3l0.4-0.4v-0.9l1.1,0.4l0.1,0.7
			l0.4,0.4l-0.3,0.2l-0.4-0.2l-0.3,0.2l-0.3,0.9l-1.5,1.2l0.2,0.6l-0.2,0.3l-1.1,0.4l-0.2,1.3l-0.9,0.6l-0.4,0.6l-0.5,0.4l-1.6,2.5
			l-0.5,0.3l-0.2,0.4l-0.3,0.2v-0.5l-0.4,0.5l-0.1,0.6l-0.9,1.2l-0.5,0.1l-2.1,2.8l-0.4,0.1l-1.2,1l-0.4,0.1l-0.2,0.4l0.1,0.5
			l-2.8,2.8l-0.8-0.1l-0.4,0.4l-0.1,0.6l-0.8,0.4l-0.4,0.6l-0.5,0.4l-0.4,0.1l-0.2,0.6l-1.5,1.6l-2,0.9l-1.2,0.8l-0.7,0.1l-0.4-0.2
			l-0.3,0.3l-0.3,1l-1,0.1l-1,0.4l-0.9-0.7h-0.4l-1.1-0.8l-1.1,0.2l-0.2-0.3l-0.1-1.2l-0.7,0.1l-0.3-0.2l0.2-0.3l0.5-0.3v0.4
			l0.5-0.2l-0.8-0.4l-0.1-0.4l0.2-0.7l0.4-0.4l-0.1-0.2h-0.8l-0.5-0.4l0.2-0.7l-0.3-0.7l0.2-0.4l-0.4-0.6l0.4-0.5l0.1-0.7l0.7-0.4
			l-0.8-0.6h-0.3l-0.1-0.4l0.4-0.9l-0.5-1.9l0.2-0.3L427,64l0.4-1.5l0.7-0.1l-0.7-1.6l0.1-0.4l-0.5-1.2l0.8-2.2v-1.6l0.9-2.2v-1.2
			l-0.2-0.7l0.5-0.9l0.3-1.3l-0.3-0.8l0.9-1.7l-0.3-0.7l0.7-1.2v-1.1L430,43l0.5-0.2l-0.2-0.4L430,42l0.5-2l0.4-0.1l0.4-0.4
			l-0.2-0.3l-0.6-0.1l-0.1-0.3l0.9-0.4l-0.4-0.8l0.8-1.1v-1l0.2-0.3l-0.5-0.5l-0.4-0.1l-0.5-0.5l-0.8,0.5l-0.5-0.4l-0.4,0.4v-0.9
			l-0.2-0.2l-1.5,0.6l-0.5,0.4l-0.3-0.6l-0.4-0.2l0.1,0.6l-0.3,0.2l-1-0.3l-0.4,0.1l-0.6-0.4l-0.5,1.2l-1.6-0.7l-0.8-1v-0.4l1.3-0.3
			l0.3-0.3l-0.1-0.4l0.7,0.4l1.2-0.3l0.5-0.4l0.6,0.1l1.3-0.3l0.7,0.6h0.8l0.6-0.5l2.2-0.3h2l0.4-0.4l-0.5-0.5l0.3-0.3l0.4-0.1
			l0.3-0.3l-0.8-0.7l0.5-0.6l0.3-1l-0.2-1.2l0.4-0.9l0.3-2l0.6-0.4l0.3-0.7l0.9-0.7l3,0.3l0.9,1L440.5,23z M426.8,62l-0.3,0.1
			l0.4-0.3L426.8,62z M435.9,60.8l-0.1-0.4h-0.4l-0.1,0.3l0.4,0.4L435.9,60.8z M436,52.4h0.2v-0.3H436V52.4z M457.1,53.3h0.6V53
			h-0.4L457.1,53.3L457.1,53.3z"/>
		<path class="st1" d="M494.7,45.9l-0.5,0.6v0.4l0.4,0.5l-1.3,0.2l-0.2,0.7l-0.7,1.1l0.2,1.2l-0.3-0.3l-0.7,0.2l-0.3,0.3l-0.1,1
			l-1.1,0.5l0.3,0.7l-1.3,1.8l-0.1,1.1l-0.7-0.3l-0.4,0.1l-0.4,0.5l-0.1,0.7l-0.8,1l0.3,0.8l-0.2,0.3h-1.2l-0.3,0.2l0.4,0.9
			l-0.2,0.4l-0.6-0.3l-1.2,0.9v0.7l-0.2,0.2l-0.7,0.1l-0.8,0.6l0.2,0.8l-1.3,0.6l-0.4,0.6l-0.6,0.4v0.6l-0.6,0.5l-0.8,1.2l-0.6,0.3
			l-0.3,0.4l0.1,0.4L476,69l-0.1,0.7l-1.1,0.4l-0.2-0.4l0.2-0.6h-0.7l-0.8,1.2l0.6,0.2l-0.2,0.3l-0.8,0.4l-0.4,0.5l-1.2,0.4
			l-0.4,0.6l-0.4,0.2l-0.7-0.4l-0.6,0.4l-0.4,0.5l-0.6-0.2l-0.3,0.3V74l-1.7,1.2l-1.5-0.1l-1.2,0.3l-0.4-0.6h-0.6l-0.6,0.4l-0.1,0.4
			l-0.8,0.1l-0.2-0.2V75l-0.2-0.3l-0.4-0.1l-0.4,0.6l-0.6,0.3l-0.3-0.2l-0.3-0.7l-1.1-0.2l-0.2-0.3l0.2-0.8h-0.4l-0.4,0.3l-0.6-0.4
			l-0.3-0.6l0.1-0.4l-0.2-0.3l-0.7-0.2l-0.2-0.3l0.1-0.4l-0.2-0.3l-1-0.5l0.3-0.7l-0.1-0.3l-0.4-0.2l-0.4,0.1l-0.2-2.4l-0.4-1.9
			l0.5-0.4l-0.6-0.7l-0.1-0.4l0.2-0.4l0.5-0.4l-0.5-1.7l0.1-0.5l0.3-0.3l-0.1-0.4l0.4-0.6l-0.6-0.8l0.2-0.4l0.6-0.4l0.1-0.9l0.2-0.3
			l-0.5-0.8l0.2-0.3l0.9-0.1l0.2-0.2l-0.4-0.8l0.6-1.2l0.8-1.1v-0.4l0.4-0.5l-0.2-0.6l0.3-0.3l0.7-0.3l-0.2-0.6l1.3-2l0.7-0.2
			l-0.1-0.7l1.3-1.7l0.4-0.3l0.7,0.1l0.3-0.2l-0.4-0.6l0.4-0.4l0.8-0.2v-0.7l0.4-0.5h0.7l-0.1-0.8l1.4-1.8l1.1,0.1l0.3-0.2l-0.1-0.4
			l0.3-0.7l0.4-0.1l1-0.7l1.5-0.2l0.6-0.4l0.6,0.2l2-0.3l0.8,0.5h1.2l0.7,0.2l1,0.8h0.4l2.4,3.8v0.4l-0.6,0.1l-0.2,0.4l0.1,0.7
			l0.3,0.3l0.3,0.7l-0.3,0.5l-0.8,0.3l0.4,0.8l-1,0.6l-0.4,1.1l-0.7,0.2l-0.4,1.2l-0.8,0.3l-0.3,0.7l-0.6,0.4l-0.6-0.3l-0.1,1.1
			l-0.3,0.2l-0.7-0.1l-0.4,0.6l-1.1,0.5l-0.4,0.6l-1.9,1.2l-0.9,0.3v0.4l-0.4,0.6l-0.4,0.1l-0.5-0.5l-0.4,0.1l-0.7,0.7l-0.8,0.1
			l-0.8,1.3h-0.5l0.2,0.6l-0.1,0.4l-0.6,0.3l-1,1.4l0.3,0.8l-0.8,0.3l0.1,0.4l0.5,0.3l0.1,0.3l-0.3,0.4l-1.7-0.4l-0.8,0.6l-1.1-0.1
			l-0.3,0.2l0.2,0.3l1.1,0.4l1.2-0.6L461,63h0.6l-0.2,0.8l0.2,0.3l0.6,0.2l0.3,0.3l-0.7,0.7l-0.7,0.1l-0.2,0.2l0.4,0.6l-1,0.6
			l0.2,0.3l1.2-0.3l0.8,0.5l-0.2,0.4l-0.5,0.4l-0.7-0.1l-1.1-0.6l-0.2,0.3l0.3,0.5l1.2,0.5l1.1-0.3l0.3,0.2l0.1,0.4l-0.7,0.3
			l-0.3,0.3l0.4,1l0.4,0.2l0.3-0.2l0.2-0.7l0.3-0.3l0.7,0.5l-0.3,0.7l0.3,0.2l1-0.2l1.2,0.6l0.7-0.1l0.9-0.7h1.2l1.9-1.2h1.2
			l0.3-0.3l-0.2-0.4l0.2-0.4l0.8,0.3l0.5-0.6l0.9-0.4l1-1.3h0.9l0.1-0.6l0.4-0.5l0.4-0.1l1.2-1.2l0.6-0.3l0.3-0.8l0.8-0.3l0.1-0.7
			l0.8-0.4l0.8-1.2l0.3-0.1l2-2l0.1-0.8l0.6-0.4l1.4-1.5l0.2-0.6l1.2-0.9l-0.3-0.7l1-0.8v-0.7l0.4-0.5h0.4l0.3-0.2v-0.4l0.3-0.6
			l0.4-0.4l0.8-0.1l-0.3-0.4l0.4-1l0.4-0.3l0.1-0.5L492,46v-0.4l0.9-0.1l0.3,0.5l0.3-0.2l0.1-0.4l0.6-0.6l0.4,0.1l0.4,0.6
			L494.7,45.9z M455.6,65.4l0.1-0.3h-0.4v0.4L455.6,65.4z M455.8,54.8l-0.3-0.3l-0.2,0.4l0.2,0.1L455.8,54.8z M456.6,66.7l0.4-0.4
			l-0.4,0.1l-0.2,0.3H456.6z M456.6,63.6l-0.1,0.3l0.5,0.1l0.2-0.3l-0.4-0.3L456.6,63.6z M458.1,68.3l0.4-0.3l-0.2-0.3h-1.1
			l-0.4,0.3v0.5l0.8-0.3H458.1z M457.7,67l0.5,0.1l0.1-0.4h-0.6V67z M458.6,64.9l-0.3-0.3H458l-0.3,0.3l0.4,0.4h0.4L458.6,64.9z
			 M458.7,64l0.4,0.1l0.3-0.2l-0.6-0.4l-0.3,0.3L458.7,64z M459.2,52.1l-0.4,0.1l0.2,0.4h0.4l0.2-0.3L459.2,52.1z M459.2,68.2
			L459,68l-0.2,0.4L459.2,68.2z M459.5,61.2l0.2-1.1l-0.4-0.1l-0.4,0.3l0.3,1L459.5,61.2z M459.9,65.5l0.4-0.1l0.1-0.3l-0.3-0.2
			l-0.4,0.2l-0.2,0.4H459.9z M459.8,64.3l0.4,0.3v-0.3H459.8z M460.1,57.3l0.7,0.2l0.2-0.2l-0.3-0.3H460L460.1,57.3z M461.1,69.3
			l-0.3-0.3l-0.3,0.3l0.2,0.3L461.1,69.3z M462.7,63.6l-0.4-0.1l-0.3-0.4l0.3-0.3l0.6,0.2l0.1,0.3L462.7,63.6z M462,66.2v-0.5
			l0.4-0.2l0.3,0.3l0.1,0.4l-0.4,0.2L462,66.2z M462.4,51.9l0.8,0.3l0.2,0.4l0.4,0.1l0.2-0.4l-0.8-0.3l-0.2-0.4l-0.4-0.2L462.4,51.9
			z M464.3,50.8v-0.2l-0.3,0.1L464.3,50.8z M465.2,52.4l-0.2,1.1l1.2-0.2l0.5-0.4l0.5-0.9l0.7-0.2l0.4-0.5l1-0.2l1.2-0.8h0.4
			l0.9-1.2l0.4-0.1l0.1-0.3l1.2-1l0.2-0.5l1-1.1l0.1-0.4l1-0.9l0.3-0.5l0.1-0.8l0.4-0.8l-0.9-1.7l-0.5-0.4l-0.4-0.7l-1-0.4l-0.4-0.6
			l-0.4,0.6h-0.5l-1.2,0.6v0.4l-0.4,0.3l-0.4-0.1l-0.4-0.6l-0.5,0.4l-0.2,0.6l0.1,0.7l-0.5,0.6l0.1,0.4l-0.2,0.6l-0.6,0.7l-0.4,1.2
			v0.4l-1,0.9l0.7,0.3l0.2,0.4l-1.1,1.2v0.4l-0.3,0.3l-1-0.2v0.4l0.7,0.8l0.1,1l-0.9,0.6L465.2,52.4z M465.2,51l-0.2,0.2l0.3,0.1
			l0.2-0.2L465.2,51z M475.9,68.1l0.1-0.4l-0.4,0.3L475.9,68.1z M484.5,61.2l-0.2,0.3l-0.1-0.3H484.5z M487.6,57.2l0.4-0.3l0.2,0.3
			l-0.4,0.4l-0.4-0.1L487.6,57.2z"/>
	</g>
</g>
</svg>
