<?xml version="1.0" encoding="utf-8"?>
<!-- Generator: Adobe Illustrator 27.5.0, SVG Export Plug-In . SVG Version: 6.00 Build 0)  -->
<svg version="1.1" xmlns="http://www.w3.org/2000/svg" xmlns:xlink="http://www.w3.org/1999/xlink" x="0px" y="0px"
	 viewBox="0 0 916 108" style="enable-background:new 0 0 916 108;" xml:space="preserve">
<style type="text/css">
	.st0{fill:#FFFFFF;}
	.st1{fill:url(#SVGID_1_);}
	.st2{fill:#F3E8F1;}
	.st3{fill:url(#SVGID_00000155108285768037946550000004577066022019496893_);}
	.st4{fill:url(#SVGID_00000030462129716575250900000002029253328629433767_);}
	.st5{fill:#8B1874;}
	.st6{display:none;}
	.st7{display:inline;}
</style>
<g id="Layer_1">
	<path class="st0" d="M-781.8,602h-528c-19.8,0-36-16.2-36-36V38c0-19.8,16.2-36,36-36h528c19.8,0,36,16.2,36,36v528
		C-745.8,585.8-762,602-781.8,602z"/>
	<g>
		
			<image style="overflow:visible;opacity:0.25;" width="504" height="524" xlink:href="177739E9F7D4AE5D.png"  transform="matrix(1 0 0 1 -1297.5525 44)">
		</image>
		<g>
			<linearGradient id="SVGID_1_" gradientUnits="userSpaceOnUse" x1="-926.0277" y1="94.522" x2="-1165.6028" y2="509.4782">
				<stop  offset="0" style="stop-color:#F3E8F1"/>
				<stop  offset="0.12" style="stop-color:#DCBAD5"/>
				<stop  offset="0.25" style="stop-color:#C58CBA"/>
				<stop  offset="0.5" style="stop-color:#AE5D9E"/>
				<stop  offset="1" style="stop-color:#8B1874"/>
			</linearGradient>
			<path class="st1" d="M-1100.9,216.9l-46.1,79.9h-92.3l-46.1-79.9l46.1-79.9h92.3L-1100.9,216.9L-1100.9,216.9z M-990.7,216.9
				l46.1-79.9h92.3l46.1,79.9l-46.1,79.9h-92.3L-990.7,216.9L-990.7,216.9z M-1092,211.8l-46.1-79.9L-1092,52h92.3l46.1,79.9
				l-46.1,79.9H-1092L-1092,211.8z M-1092,222.1h92.3l46.1,79.9l-46.1,79.9h-92.3l-46.1-79.9L-1092,222.1L-1092,222.1z
				 M-944.6,307.2h92.3l46.1,79.9l-46.1,79.9h-92.3l-46.1-79.9L-944.6,307.2L-944.6,307.2z M-953.6,472.1l-46.1,79.9h-92.3
				l-46.1-79.9l46.1-79.9h92.3L-953.6,472.1L-953.6,472.1z M-1147,466.9h-92.3l-46.1-79.9l46.1-79.9h92.3l46.1,79.9L-1147,466.9
				L-1147,466.9z"/>
		</g>
	</g>
</g>
<g id="Layer_4">
	<path class="st2" d="M-1631.4,580.7h-528c-19.8,0-36-16.2-36-36v-528c0-19.8,16.2-36,36-36h528c19.8,0,36,16.2,36,36v528
		C-1595.4,564.5-1611.6,580.7-1631.4,580.7z"/>
	<g>
		
			<image style="overflow:visible;opacity:0.25;" width="470" height="495" xlink:href="177739E9F7D4AE5F.png"  transform="matrix(1 0 0 1 -2130.5525 37)">
		</image>
		<g>
			
				<linearGradient id="SVGID_00000178893490840478379500000005989381133392059814_" gradientUnits="userSpaceOnUse" x1="-1784.2386" y1="88.187" x2="-2006.5632" y2="473.2645">
				<stop  offset="0" style="stop-color:#F3E8F1"/>
				<stop  offset="0.12" style="stop-color:#DCBAD5"/>
				<stop  offset="0.25" style="stop-color:#C58CBA"/>
				<stop  offset="0.5" style="stop-color:#AE5D9E"/>
				<stop  offset="1" style="stop-color:#8B1874"/>
			</linearGradient>
			<path style="fill:url(#SVGID_00000178893490840478379500000005989381133392059814_);" d="M-1967.7,195.7l-37.5,64.9h-75
				l-37.5-64.9l37.5-64.9h75L-1967.7,195.7L-1967.7,195.7z M-1823.1,195.7l37.5-64.9h75l37.5,64.9l-37.5,64.9h-75L-1823.1,195.7
				L-1823.1,195.7z M-1932.9,175.5l-37.5-64.9l37.5-64.9h75l37.5,64.9l-37.5,64.9H-1932.9L-1932.9,175.5z M-1932.9,215.8h75
				l37.5,64.9l-37.5,64.9h-75l-37.5-64.9L-1932.9,215.8L-1932.9,215.8z M-1785.6,300.9h75l37.5,64.9l-37.5,64.9h-75l-37.5-64.9
				L-1785.6,300.9L-1785.6,300.9z M-1820.4,450.9l-37.5,64.9h-75l-37.5-64.9l37.5-64.9h75L-1820.4,450.9L-1820.4,450.9z
				 M-2005.2,430.7h-75l-37.5-64.9l37.5-64.9h75l37.5,64.9L-2005.2,430.7L-2005.2,430.7z"/>
		</g>
	</g>
</g>
<g id="Layer_5">
	
		<linearGradient id="SVGID_00000073693693893349984560000005258872249857028504_" gradientUnits="userSpaceOnUse" x1="-2459.0588" y1="-71.1885" x2="-2855.6616" y2="615.7479">
		<stop  offset="0" style="stop-color:#F3E8F1"/>
		<stop  offset="0.12" style="stop-color:#DCBAD5"/>
		<stop  offset="0.25" style="stop-color:#C58CBA"/>
		<stop  offset="0.5" style="stop-color:#AE5D9E"/>
		<stop  offset="1" style="stop-color:#8B1874"/>
	</linearGradient>
	<path style="fill:url(#SVGID_00000073693693893349984560000005258872249857028504_);" d="M-2393.4,572.3h-528
		c-19.8,0-36-16.2-36-36V8.3c0-19.8,16.2-36,36-36h528c19.8,0,36,16.2,36,36v528C-2357.4,556.1-2373.6,572.3-2393.4,572.3z"/>
	<g>
		
			<image style="overflow:visible;opacity:0.25;" width="470" height="495" xlink:href="177739E9F7D4AE5A.png"  transform="matrix(1 0 0 1 -2892.5525 29)">
		</image>
		<g>
			<path class="st2" d="M-2729.7,187.2l-37.5,64.9h-75l-37.5-64.9l37.5-64.9h75L-2729.7,187.2L-2729.7,187.2z M-2585,187.2
				l37.5-64.9h75l37.5,64.9l-37.5,64.9h-75L-2585,187.2L-2585,187.2z M-2694.9,167.1l-37.5-64.9l37.5-64.9h75l37.5,64.9l-37.5,64.9
				H-2694.9L-2694.9,167.1z M-2694.9,207.3h75l37.5,64.9l-37.5,64.9h-75l-37.5-64.9L-2694.9,207.3L-2694.9,207.3z M-2547.5,292.4h75
				l37.5,64.9l-37.5,64.9h-75l-37.5-64.9L-2547.5,292.4L-2547.5,292.4z M-2582.4,442.4l-37.5,64.9h-75l-37.5-64.9l37.5-64.9h75
				L-2582.4,442.4L-2582.4,442.4z M-2767.2,422.3h-75l-37.5-64.9l37.5-64.9h75l37.5,64.9L-2767.2,422.3L-2767.2,422.3z"/>
		</g>
	</g>
</g>
<g id="Layer_3">
	<g>
		<path class="st5" d="M3.9,102.2L22.9,4h11.8l25.2,66.1L84.9,4h11.8l19.1,98.2h-14.9L88.2,36.5l-23.5,62h-9.8l-23.4-62l-12.7,65.7
			H3.9z"/>
		<path class="st5" d="M156.7,104c-6.5,0-12.3-1.7-17.6-5c-5.3-3.3-9.5-7.8-12.7-13.4c-3.2-5.6-4.7-11.8-4.7-18.5
			c0-5.1,0.9-9.9,2.7-14.4c1.8-4.5,4.3-8.4,7.5-11.8c3.2-3.4,6.9-6,11.2-8c4.3-1.9,8.8-2.9,13.6-2.9c6.5,0,12.3,1.7,17.6,5
			c5.3,3.3,9.5,7.8,12.7,13.4c3.2,5.6,4.7,11.8,4.7,18.7c0,5.1-0.9,9.9-2.7,14.3c-1.8,4.4-4.3,8.4-7.5,11.7c-3.2,3.4-6.9,6-11.1,8
			C166.1,103,161.5,104,156.7,104z M156.7,89.4c3.9,0,7.4-1,10.4-3.1c3.1-2.1,5.5-4.8,7.3-8.2c1.8-3.4,2.7-7.1,2.7-11
			c0-4.1-0.9-7.8-2.8-11.2c-1.8-3.4-4.3-6.1-7.4-8.2c-3.1-2-6.5-3.1-10.3-3.1c-3.8,0-7.3,1-10.4,3.1c-3.1,2.1-5.6,4.8-7.4,8.2
			c-1.8,3.4-2.7,7.1-2.7,11.2c0,4.2,0.9,7.9,2.8,11.3c1.9,3.4,4.4,6,7.5,8C149.6,88.4,153,89.4,156.7,89.4z"/>
		<path class="st5" d="M266.2,58.2v44h-14.6V61.8c0-3.1-0.8-6-2.3-8.6c-1.5-2.6-3.6-4.6-6.1-6.1c-2.5-1.5-5.4-2.3-8.6-2.3
			c-3.1,0-5.9,0.8-8.5,2.3c-2.6,1.5-4.6,3.6-6.2,6.1c-1.5,2.6-2.3,5.4-2.3,8.6v40.4h-14.6V32.1h14.6v7.4c2.4-2.9,5.4-5.2,9-6.9
			c3.6-1.7,7.4-2.5,11.5-2.5c5.2,0,9.9,1.3,14.2,3.8c4.3,2.5,7.6,5.9,10.1,10.2C265,48.3,266.2,53,266.2,58.2z"/>
		<path class="st5" d="M287.7,21.9c-2.2,0-4.1-0.7-5.6-2.2c-1.5-1.4-2.2-3.3-2.2-5.5c0-2.1,0.7-4,2.2-5.4c1.5-1.5,3.3-2.2,5.5-2.2
			c2.2,0,4,0.7,5.5,2.2c1.5,1.5,2.2,3.3,2.2,5.4c0,2.2-0.7,4-2.2,5.5C291.6,21.2,289.8,21.9,287.7,21.9z M280.2,32.1h14.6v70.1
			h-14.6V32.1z"/>
		<path class="st5" d="M356.2,82.3l13,7.1c-3.2,4.4-7.2,8-12.1,10.7c-4.9,2.7-10.2,4-15.9,4c-6.5,0-12.3-1.7-17.6-5
			c-5.3-3.3-9.5-7.8-12.7-13.4c-3.2-5.6-4.7-11.8-4.7-18.5c0-5.1,0.9-9.9,2.7-14.4c1.8-4.5,4.3-8.4,7.5-11.8c3.2-3.4,6.9-6,11.2-8
			c4.3-1.9,8.8-2.9,13.6-2.9c5.7,0,11,1.3,15.9,4c4.9,2.7,8.9,6.2,12.1,10.7l-13,7.1c-2-2.3-4.3-4.1-6.9-5.4
			c-2.6-1.2-5.3-1.9-8.1-1.9c-3.8,0-7.3,1-10.4,3.1c-3.1,2.1-5.6,4.8-7.4,8.2c-1.8,3.4-2.7,7.1-2.7,11.1c0,4,0.9,7.7,2.7,11
			c1.8,3.4,4.3,6.1,7.4,8.2c3.1,2.1,6.6,3.1,10.3,3.1c2.9,0,5.7-0.7,8.3-2C352.1,86.1,354.4,84.4,356.2,82.3z"/>
		<path class="st5" d="M434.7,32.1h14.6v70.1h-14.7L434.1,92c-2.1,3.6-4.8,6.5-8.3,8.7c-3.5,2.2-7.6,3.3-12.4,3.3
			c-5.1,0-10-1-14.5-2.9c-4.5-1.9-8.5-4.6-12-8.1c-3.4-3.5-6.1-7.4-8-12c-1.9-4.5-2.9-9.4-2.9-14.6c0-5,0.9-9.7,2.8-14.1
			s4.5-8.3,7.8-11.6c3.3-3.3,7.2-5.9,11.5-7.8c4.4-1.9,9.1-2.8,14.1-2.8c5.1,0,9.6,1.2,13.5,3.5c3.9,2.3,7.1,5.3,9.7,8.9L434.7,32.1
			z M413,89.9c4.1,0,7.7-1,10.8-3.1c3.1-2,5.5-4.8,7.2-8.2c1.7-3.5,2.6-7.3,2.6-11.5c0-4.3-0.9-8.1-2.6-11.6
			c-1.7-3.5-4.1-6.2-7.2-8.2c-3.1-2-6.7-3.1-10.8-3.1c-4.1,0-7.8,1-11.1,3.1c-3.4,2.1-6,4.8-8,8.3c-2,3.5-2.9,7.3-2.9,11.5
			c0,4.3,1,8.1,3,11.5c2,3.4,4.7,6.2,8.1,8.2C405.4,88.9,409,89.9,413,89.9z"/>
		<path class="st5" d="M494.2,102.2V87.6l59.7-69h-59.7V4h79.4v14.6l-59.7,69h59.7v14.6H494.2z"/>
		<path class="st5" d="M639.1,32.1h14.6v70.1H639L638.4,92c-2.1,3.6-4.8,6.5-8.3,8.7c-3.5,2.2-7.6,3.3-12.4,3.3
			c-5.1,0-10-1-14.5-2.9c-4.5-1.9-8.5-4.6-12-8.1c-3.4-3.5-6.1-7.4-8-12c-1.9-4.5-2.9-9.4-2.9-14.6c0-5,0.9-9.7,2.8-14.1
			c1.9-4.4,4.5-8.3,7.8-11.6c3.3-3.3,7.2-5.9,11.5-7.8c4.4-1.9,9.1-2.8,14.1-2.8c5.1,0,9.6,1.2,13.5,3.5c3.9,2.3,7.1,5.3,9.7,8.9
			L639.1,32.1z M617.3,89.9c4.1,0,7.7-1,10.8-3.1c3.1-2,5.5-4.8,7.2-8.2c1.7-3.5,2.6-7.3,2.6-11.5c0-4.3-0.9-8.1-2.6-11.6
			c-1.7-3.5-4.1-6.2-7.2-8.2c-3.1-2-6.7-3.1-10.8-3.1c-4.1,0-7.8,1-11.1,3.1c-3.4,2.1-6,4.8-8,8.3c-2,3.5-2.9,7.3-2.9,11.5
			c0,4.3,1,8.1,3,11.5c2,3.4,4.7,6.2,8.1,8.2C609.7,88.9,613.4,89.9,617.3,89.9z"/>
		<path class="st5" d="M667.7,102.2V32.1h14.6v7.4c2.4-2.9,5.4-5.2,9-6.9c3.6-1.7,7.4-2.5,11.5-2.5c2.6,0,5.2,0.4,7.8,1.1l-5.8,14.7
			c-1.8-0.7-3.6-1.1-5.5-1.1c-3.1,0-5.9,0.8-8.5,2.3c-2.6,1.5-4.6,3.6-6.2,6.1c-1.5,2.6-2.3,5.4-2.3,8.6v40.4H667.7z"/>
		<path class="st5" d="M769.8,32.1h14.6v70.1h-14.7L769.2,92c-2.1,3.6-4.8,6.5-8.3,8.7c-3.5,2.2-7.6,3.3-12.4,3.3
			c-5.1,0-10-1-14.5-2.9c-4.5-1.9-8.5-4.6-12-8.1c-3.4-3.5-6.1-7.4-8-12c-1.9-4.5-2.9-9.4-2.9-14.6c0-5,0.9-9.7,2.8-14.1
			c1.9-4.4,4.5-8.3,7.8-11.6c3.3-3.3,7.2-5.9,11.5-7.8c4.4-1.9,9.1-2.8,14.1-2.8c5.1,0,9.6,1.2,13.5,3.5c3.9,2.3,7.1,5.3,9.7,8.9
			L769.8,32.1z M748,89.9c4.1,0,7.7-1,10.8-3.1c3.1-2,5.5-4.8,7.2-8.2c1.7-3.5,2.6-7.3,2.6-11.5c0-4.3-0.9-8.1-2.6-11.6
			c-1.7-3.5-4.1-6.2-7.2-8.2c-3.1-2-6.7-3.1-10.8-3.1c-4.1,0-7.8,1-11.1,3.1c-3.4,2.1-6,4.8-8,8.3c-2,3.5-2.9,7.3-2.9,11.5
			c0,4.3,1,8.1,3,11.5c2,3.4,4.7,6.2,8.1,8.2C740.4,88.9,744.1,89.9,748,89.9z"/>
		<path class="st5" d="M835.4,46.6h-14.7l-0.1,55.5H806l0.1-55.5H795V32.1h11.2L806,10h14.6l0.1,22h14.7V46.6z"/>
		<path class="st5" d="M877.2,104c-6.5,0-12.3-1.7-17.6-5c-5.3-3.3-9.5-7.8-12.7-13.4c-3.2-5.6-4.7-11.8-4.7-18.5
			c0-5.1,0.9-9.9,2.7-14.4c1.8-4.5,4.3-8.4,7.5-11.8c3.2-3.4,6.9-6,11.2-8c4.3-1.9,8.8-2.9,13.6-2.9c5.4,0,10.3,1.1,14.8,3.3
			c4.5,2.2,8.3,5.3,11.5,9.2c3.2,3.9,5.5,8.4,7,13.5c1.5,5.1,1.9,10.5,1.3,16.2h-54.1c0.6,3.2,1.8,6.1,3.5,8.7
			c1.8,2.6,4,4.6,6.7,6.1c2.7,1.5,5.8,2.3,9.2,2.3c3.6,0,6.8-0.9,9.7-2.7c2.9-1.8,5.3-4.2,7.2-7.4l14.8,3.4
			c-2.8,6.2-7,11.3-12.7,15.3C890.5,102,884.2,104,877.2,104z M857.2,61.1h39.8c-0.5-3.4-1.6-6.4-3.5-9.2c-1.9-2.7-4.3-4.9-7.1-6.5
			s-5.9-2.4-9.3-2.4c-3.3,0-6.4,0.8-9.2,2.4c-2.8,1.6-5.2,3.8-7,6.5C859.1,54.6,857.8,57.7,857.2,61.1z"/>
	</g>
</g>
<g id="Layer_6">
	<path class="st5" d="M-3281.8,602h-528c-19.8,0-36-16.2-36-36V38c0-19.8,16.2-36,36-36h528c19.8,0,36,16.2,36,36v528
		C-3245.8,585.8-3262,602-3281.8,602z"/>
	<g>
		
			<image style="overflow:visible;opacity:0.25;" width="470" height="496" xlink:href="177739E9F7D4AE5B.png"  transform="matrix(1 0 0 1 -3780.5525 58)">
		</image>
		<g>
			<path class="st0" d="M-3618.2,216.9l-37.5,64.9h-75l-37.5-64.9l37.5-64.9h75L-3618.2,216.9L-3618.2,216.9z M-3473.5,216.9
				l37.5-64.9h75l37.5,64.9l-37.5,64.9h-75L-3473.5,216.9L-3473.5,216.9z M-3583.3,196.8l-37.5-64.9l37.5-64.9h75l37.5,64.9
				l-37.5,64.9H-3583.3L-3583.3,196.8z M-3583.3,237h75l37.5,64.9l-37.5,64.9h-75l-37.5-64.9L-3583.3,237L-3583.3,237z M-3436,322.1
				h75l37.5,64.9L-3361,452h-75l-37.5-64.9L-3436,322.1L-3436,322.1z M-3470.8,472.1l-37.5,64.9h-75l-37.5-64.9l37.5-64.9h75
				L-3470.8,472.1L-3470.8,472.1z M-3655.7,452h-75l-37.5-64.9l37.5-64.9h75l37.5,64.9L-3655.7,452L-3655.7,452z"/>
		</g>
	</g>
</g>
<g id="Layer_7">
	<g class="st6">
		
			<image style="display:inline;overflow:visible;opacity:0.25;" width="625" height="545" xlink:href="177739E9F7D4AE65.png"  transform="matrix(1 0 0 1 -854.5525 886)">
		</image>
		<g class="st7">
			<polygon class="st5" points="-691.8,894.9 -391.7,894.9 -241.8,1154.6 -391.7,1414.4 -691.8,1414.4 -841.8,1154.6 -691.8,894.9 
							"/>
		</g>
	</g>
	<circle class="st5" cx="-541.8" cy="1154.6" r="287.5"/>
	<g>
		<path class="st0" d="M-701.9,1198.3l-89.8-35.7v-22.9l89.8-34.5v22.3l-65.7,24.1l65.7,24.4V1198.3z"/>
		<path class="st0" d="M-500,1156.7v75.1h-25.2v-69.9c0-19.6-5.5-29.3-20.7-29.3c-18,0-28.3,13.4-28.3,38.5v60.7h-25.2v-69.9
			c0-19.8-5.7-29.3-20.7-29.3c-18,0-28.5,13.4-28.5,38.5v60.7h-25.1v-119.9h23.3l0.1,19.3c6.4-13.5,18.2-21.7,36.8-21.7
			c19.3,0,30.8,8.1,36.1,22.9c6.4-14.4,18.7-22.9,37.7-22.9C-511.9,1109.6-500,1127.7-500,1156.7z"/>
		<path class="st0" d="M-472.1,1251.7l45.8-194.2h21.2l-45.8,194.2H-472.1z"/>
		<path class="st0" d="M-381.5,1198.3V1176l65.7-24.4l-65.7-24.1v-22.3l89.7,34.5v22.9L-381.5,1198.3z"/>
	</g>
</g>
</svg>
