<?xml version="1.0" encoding="utf-8"?>
<!-- Generator: Adobe Illustrator 27.3.1, SVG Export Plug-In . SVG Version: 6.00 Build 0)  -->
<svg version="1.1" id="Layer_1" xmlns="http://www.w3.org/2000/svg" xmlns:xlink="http://www.w3.org/1999/xlink" x="0px" y="0px"
	 viewBox="0 0 240 240" style="enable-background:new 0 0 240 240;" xml:space="preserve">
<style type="text/css">
	.st0{fill:none;stroke:#000000;stroke-width:4;stroke-miterlimit:10;}
	.st1{fill:#D1B3C4;stroke:#D1B3C4;stroke-width:4;stroke-miterlimit:10;}
	.st2{fill:#FFFFFF;}
	.st3{display:none;fill:#FFFFFF;}
	.st4{fill:#E087FB;stroke:#E087FB;stroke-width:4;stroke-miterlimit:10;}
	.st5{fill:none;stroke:#000000;stroke-width:6;stroke-miterlimit:10;}
</style>
<rect x="571.2" y="-1223.5" style="fill:none;" width="142.7" height="71"/>
<text transform="matrix(1 0 0 1 578.7004 -1166.8391)" style="font-family:'BCAlphapipeRB-Regular'; font-size:80px;">mO</text>
<rect x="542.5" y="-1288" class="st0" width="200" height="200"/>
<rect x="571.2" y="-949.5" style="fill:none;" width="142.7" height="71"/>
<text transform="matrix(1 0 0 1 578.7004 -892.8391)" style="font-family:'BCAlphapipeRB-Regular'; font-size:80px;">mO</text>
<rect x="542.5" y="-1014" class="st0" width="200" height="200"/>
<g>
	<path d="M884.1-918.9c0-10,6.6-15.5,14.7-15.5c5.2,0,9.3,1.9,11.6,5.8c2.2-3.9,6.7-5.8,11.5-5.8c8.2,0,14.8,5.5,14.8,15.5v103.4
		c0,1.8-1.4,3.3-3.2,3.3c-1.8,0-3.2-1.4-3.2-3.3V-919c0-6.3-3.7-9.5-8.4-9.5c-4.6,0-8.3,3.2-8.3,9.5v23.5c0,1.8-1.4,3.3-3.2,3.3
		c-1.8,0-3.2-1.4-3.2-3.3V-919c0-6.3-3.7-9.5-8.4-9.5c-4.6,0-8.3,3.2-8.3,9.5v23.5c0,1.8-1.4,3.3-3.2,3.3c-1.8,0-3.2-1.4-3.2-3.3
		V-918.9z"/>
	<path d="M945.7-920.8c0-16.1,12.6-28.8,28.5-28.8s28.5,12.7,28.5,28.8S990.1-892,974.2-892S945.7-904.8,945.7-920.8z M995.7-920.8
		c0-12.5-9.5-22.3-21.5-22.3c-12,0-21.4,9.8-21.4,22.3c0,12.4,9.4,22.2,21.4,22.2C986.2-898.6,995.7-908.4,995.7-920.8z"/>
</g>
<rect x="842.5" y="-1014" class="st0" width="200" height="200"/>
<rect x="1154.5" y="-1003" class="st1" width="200" height="200"/>
<g>
	<path d="M1184.1-919.9c0-10,6.6-15.5,14.7-15.5c5.2,0,9.3,1.9,11.6,5.8c2.2-3.9,6.7-5.8,11.5-5.8c8.2,0,14.8,5.5,14.8,15.5v103.4
		c0,1.8-1.4,3.3-3.2,3.3c-1.8,0-3.2-1.4-3.2-3.3V-920c0-6.3-3.7-9.5-8.4-9.5c-4.6,0-8.3,3.2-8.3,9.5v23.5c0,1.8-1.4,3.3-3.2,3.3
		c-1.8,0-3.2-1.4-3.2-3.3V-920c0-6.3-3.7-9.5-8.4-9.5c-4.6,0-8.3,3.2-8.3,9.5v23.5c0,1.8-1.4,3.3-3.2,3.3c-1.8,0-3.2-1.4-3.2-3.3
		V-919.9z"/>
	<path d="M1245.7-921.8c0-16.1,12.6-28.8,28.5-28.8s28.5,12.7,28.5,28.8s-12.6,28.8-28.5,28.8S1245.7-905.8,1245.7-921.8z
		 M1295.7-921.8c0-12.5-9.5-22.3-21.5-22.3c-12,0-21.4,9.8-21.4,22.3c0,12.4,9.4,22.2,21.4,22.2
		C1286.2-899.6,1295.7-909.4,1295.7-921.8z"/>
</g>
<rect x="1142.5" y="-1015" class="st0" width="200" height="200"/>
<rect y="-758" class="st2" width="225" height="225"/>
<path class="st1" d="M114.5-543L114.5-543c-55.2,0-100-44.8-100-100v0c0-55.2,44.8-100,100-100h0c55.2,0,100,44.8,100,100v0
	C214.5-587.8,169.7-543,114.5-543z"/>
<g>
	<path d="M48.1-655.9c0-10,6.6-15.5,14.7-15.5c5.2,0,9.3,1.9,11.6,5.8c2.2-3.9,6.7-5.8,11.5-5.8c8.2,0,14.8,5.5,14.8,15.5v103.4
		c0,1.8-6.4,1.8-6.4,0V-656c0-6.3-3.7-9.5-8.4-9.5c-4.6,0-8.3,3.2-8.3,9.5v23.5c0,1.8-1.4,3.3-3.2,3.3c-1.8,0-3.2-1.4-3.2-3.3V-656
		c0-6.3-3.7-9.5-8.4-9.5c-4.6,0-8.3,3.2-8.3,9.5v23.5c0,1.8-1.4,3.3-3.2,3.3c-1.8,0-3.2-1.4-3.2-3.3V-655.9z"/>
	<path d="M109.7-657.8c0-16.1,12.6-28.8,28.5-28.8s28.5,12.7,28.5,28.8S154.1-629,138.2-629S109.7-641.8,109.7-657.8z M159.7-657.8
		c0-12.5-9.5-22.3-21.5-22.3c-12,0-21.4,9.8-21.4,22.3c0,12.4,9.4,22.2,21.4,22.2C150.2-635.6,159.7-645.4,159.7-657.8z"/>
</g>
<path class="st0" d="M106.5-551L106.5-551c-55.2,0-100-44.8-100-100v0c0-55.2,44.8-100,100-100h0c55.2,0,100,44.8,100,100v0
	C206.5-595.8,161.7-551,106.5-551z"/>
<path class="st3" d="M109.6,224.4L109.6,224.4C47.5,224.4-2.9,174-2.9,111.9v0C-2.9,49.8,47.5-0.6,109.6-0.6h0
	c62.1,0,112.5,50.4,112.5,112.5v0C222.1,174,171.7,224.4,109.6,224.4z"/>
<path class="st4" d="M123.6,223.9L123.6,223.9c-55.2,0-100-44.8-100-100v0c0-55.2,44.8-100,100-100h0c55.2,0,100,44.8,100,100v0
	C223.6,179.1,178.8,223.9,123.6,223.9z"/>
<g>
	<path d="M56.3,108.9c0-10,6.6-15.5,14.7-15.5c5.2,0,9.3,1.9,11.6,5.8c2.2-3.9,6.7-5.8,11.5-5.8c8.2,0,14.8,5.5,14.8,15.5v103.4
		c0,1.8-6.4,1.8-6.4,0V108.8c0-6.3-3.7-9.5-8.4-9.5c-4.6,0-8.3,3.2-8.3,9.5v23.5c0,1.8-1.4,3.3-3.2,3.3c-1.8,0-3.2-1.4-3.2-3.3
		v-23.5c0-6.3-3.7-9.5-8.4-9.5c-4.6,0-8.3,3.2-8.3,9.5v23.5c0,1.8-1.4,3.3-3.2,3.3c-1.8,0-3.2-1.4-3.2-3.3V108.9z"/>
	<path d="M117.9,106.9c0-16.1,12.6-28.8,28.5-28.8s28.5,12.7,28.5,28.8s-12.6,28.8-28.5,28.8S117.9,123,117.9,106.9z M167.9,106.9
		c0-12.5-9.5-22.3-21.5-22.3c-12,0-21.4,9.8-21.4,22.3c0,12.4,9.4,22.2,21.4,22.2C158.4,129.2,167.9,119.3,167.9,106.9z"/>
</g>
<path class="st0" d="M115.6,215.9L115.6,215.9c-55.2,0-100-44.8-100-100v0c0-55.2,44.8-100,100-100h0c55.2,0,100,44.8,100,100v0
	C215.6,171.1,170.8,215.9,115.6,215.9z"/>
<rect y="-461" class="st2" width="225" height="225"/>
<path class="st1" d="M114.5-246L114.5-246c-55.2,0-100-44.8-100-100v0c0-55.2,44.8-100,100-100h0c55.2,0,100,44.8,100,100v0
	C214.5-290.8,169.7-246,114.5-246z"/>
<g>
	<path d="M48.1-358.9c0-10,6.6-15.5,14.7-15.5c5.2,0,9.3,1.9,11.6,5.8c2.2-3.9,6.7-5.8,11.5-5.8c8.2,0,14.8,5.5,14.8,15.5v103.4
		c0,1.8-6.4,1.8-6.4,0V-359c0-6.3-3.7-9.5-8.4-9.5c-4.6,0-8.3,3.2-8.3,9.5v23.5c0,1.8-1.4,3.3-3.2,3.3c-1.8,0-3.2-1.4-3.2-3.3V-359
		c0-6.3-3.7-9.5-8.4-9.5c-4.6,0-8.3,3.2-8.3,9.5v23.5c0,1.8-1.4,3.3-3.2,3.3c-1.8,0-3.2-1.4-3.2-3.3V-358.9z"/>
	<path d="M109.7-360.8c0-16.1,12.6-28.8,28.5-28.8s28.5,12.7,28.5,28.8S154.1-332,138.2-332S109.7-344.8,109.7-360.8z M159.7-360.8
		c0-12.5-9.5-22.3-21.5-22.3c-12,0-21.4,9.8-21.4,22.3c0,12.4,9.4,22.2,21.4,22.2C150.2-338.6,159.7-348.4,159.7-360.8z"/>
</g>
<path class="st0" d="M106.5-254L106.5-254c-55.2,0-100-44.8-100-100v0c0-55.2,44.8-100,100-100h0c55.2,0,100,44.8,100,100v0
	C206.5-298.8,161.7-254,106.5-254z"/>
<rect y="-1027" class="st2" width="225" height="225"/>
<rect x="18.5" y="-1008" class="st1" width="200" height="200"/>
<g>
	<path d="M48.1-924.9c0-10,6.6-15.5,14.7-15.5c5.2,0,9.3,1.9,11.6,5.8c2.2-3.9,6.7-5.8,11.5-5.8c8.2,0,14.8,5.5,14.8,15.5v103.4
		c0,1.8-1.4,3.3-3.2,3.3c-1.8,0-3.2-1.4-3.2-3.3V-925c0-6.3-3.7-9.5-8.4-9.5c-4.6,0-8.3,3.2-8.3,9.5v23.5c0,1.8-1.4,3.3-3.2,3.3
		c-1.8,0-3.2-1.4-3.2-3.3V-925c0-6.3-3.7-9.5-8.4-9.5c-4.6,0-8.3,3.2-8.3,9.5v23.5c0,1.8-1.4,3.3-3.2,3.3c-1.8,0-3.2-1.4-3.2-3.3
		V-924.9z"/>
	<path d="M109.7-926.8c0-16.1,12.6-28.8,28.5-28.8s28.5,12.7,28.5,28.8S154.1-898,138.2-898S109.7-910.8,109.7-926.8z M159.7-926.8
		c0-12.5-9.5-22.3-21.5-22.3c-12,0-21.4,9.8-21.4,22.3c0,12.4,9.4,22.2,21.4,22.2C150.2-904.6,159.7-914.4,159.7-926.8z"/>
</g>
<rect x="6.5" y="-1020" class="st0" width="200" height="200"/>
<rect x="575.2" y="-677.5" style="fill:none;" width="142.7" height="71"/>
<text transform="matrix(1 0 0 1 582.7004 -620.8391)" style="font-family:'BCAlphapipeRB-Regular'; font-size:80px;">mO</text>
<rect x="546.5" y="-742" class="st0" width="200" height="200"/>
<g>
	<path d="M880.9-1192.9c0-10,6.6-15.5,14.7-15.5c5.2,0,9.3,1.9,11.6,5.8c2.2-3.9,6.7-5.8,11.5-5.8c8.2,0,14.8,5.5,14.8,15.5v103.4
		c0,1.8-1.4,3.3-3.2,3.3c-1.8,0-3.2-1.4-3.2-3.3V-1193c0-6.3-3.7-9.5-8.4-9.5c-4.6,0-8.3,3.2-8.3,9.5v23.5c0,1.8-1.4,3.3-3.2,3.3
		c-1.8,0-3.2-1.4-3.2-3.3v-23.5c0-6.3-3.7-9.5-8.4-9.5c-4.6,0-8.3,3.2-8.3,9.5v23.5c0,1.8-1.4,3.3-3.2,3.3c-1.8,0-3.2-1.4-3.2-3.3
		V-1192.9z"/>
	<path d="M942.5-1194.8c0-16.1,12.6-28.8,28.5-28.8s28.5,12.7,28.5,28.8c0,16.1-12.6,28.8-28.5,28.8S942.5-1178.8,942.5-1194.8z
		 M992.5-1194.8c0-12.5-9.5-22.3-21.5-22.3c-12,0-21.4,9.8-21.4,22.3c0,12.4,9.4,22.2,21.4,22.2
		C983-1172.6,992.5-1182.4,992.5-1194.8z"/>
	<path d="M1003.1-1170.4c0-2.4,1.8-4.2,4.2-4.2c2.3,0,4.2,1.8,4.2,4.2c0,2.3-1.8,4.2-4.2,4.2
		C1004.9-1166.2,1003.1-1168.1,1003.1-1170.4z"/>
</g>
<rect x="845.5" y="-1288" class="st0" width="200" height="200"/>
<path class="st5" d="M1046.5-1051"/>
<path class="st5" d="M1046.5-1133"/>
</svg>
