<svg width="30" height="24" viewBox="0 0 30 24" fill="none" xmlns="http://www.w3.org/2000/svg">
<path d="M29.3295 -0.3125H0.965909C0.3625 -0.3125 -0.125 0.175 -0.125 0.778409V22.5966C-0.125 23.2 0.3625 23.6875 0.965909 23.6875H29.3295C29.933 23.6875 30.4205 23.2 30.4205 22.5966V0.778409C30.4205 0.175 29.933 -0.3125 29.3295 -0.3125ZM27.9659 3.46477V21.233H2.32955V3.46477L1.38864 2.73182L2.72841 1.01023L4.1875 2.14545H26.1114L27.5705 1.01023L28.9102 2.73182L27.9659 3.46477ZM26.1114 2.14205L15.1477 10.6648L4.18409 2.14205L2.725 1.00682L1.38523 2.72841L2.32614 3.46136L13.9716 12.5159C14.3065 12.7761 14.7185 12.9173 15.1426 12.9173C15.5667 12.9173 15.9787 12.7761 16.3136 12.5159L27.9659 3.46477L28.9068 2.73182L27.567 1.01023L26.1114 2.14205Z" fill="black"/>
</svg>
